<?xml version="1.0" encoding="UTF-8"?>
<!-- Created with Inkscape (http://www.inkscape.org/) -->
<svg width="666.67" height="666.67" version="1.1" viewBox="0 0 666.67 666.67" xml:space="preserve" xmlns="http://www.w3.org/2000/svg" xmlns:cc="http://creativecommons.org/ns#" xmlns:dc="http://purl.org/dc/elements/1.1/" xmlns:rdf="http://www.w3.org/1999/02/22-rdf-syntax-ns#"><metadata><rdf:RDF><cc:Work rdf:about=""><dc:format>image/svg+xml</dc:format><dc:type rdf:resource="http://purl.org/dc/dcmitype/StillImage"/><dc:title/></cc:Work></rdf:RDF></metadata><defs><clipPath id="clipPath20"><path d="m0 500h500v-500h-500z"/></clipPath><clipPath id="clipPath250"><path d="m275.58 351.87h59.043v-74.707h-59.043z"/></clipPath><clipPath id="clipPath266"><path d="m292.11 351.87h61.895v-78.433h-61.895z"/></clipPath><clipPath id="clipPath302"><path d="m309.18 346.03h36.175v-68.548h-36.175z"/></clipPath><clipPath id="clipPath466"><path d="m243.84 220.14h12.288v-12.289h-12.288z"/></clipPath><clipPath id="clipPath482"><path d="m66.923 440.08h366.12v-372.2h-366.12z"/></clipPath><clipPath id="clipPath594"><path d="m377.22 194.95h56.786v-31.376h-56.786z"/></clipPath><clipPath id="clipPath670"><path d="m151.58 432.06h29.299v-22.084h-29.299z"/></clipPath></defs><g transform="matrix(1.3333 0 0 -1.3333 0 666.67)"><g clip-path="url(#clipPath20)"><g><g transform="translate(308.52 216.92)" fill="#b079d0"><path d="m0 0c-11.551-20.38-33.445-34.135-58.54-34.135-27.808 0-51.686 16.89-61.914 40.969-3.432 8.071-5.33 16.947-5.33 26.274 0 37.135 30.109 67.244 67.244 67.244s67.243-30.109 67.243-67.244c0-12.04-3.163-23.331-8.703-33.108m55.615 59.814c-2.54 2.311-11.454 1.611-20.033 0.259-2.061 7.199-4.928 14.052-8.483 20.466 6.872 4.984 13.525 10.707 13.889 14.483 0.767 7.947-30.559 38.027-37.691 37.691-3.432-0.163-9.25-6.968-14.36-13.995-6.413 3.566-13.266 6.432-20.464 8.493 1.341 8.388 1.993 17.13-0.413 20.053-5.081 6.164-48.503 5.282-53.306 0-2.31-2.54-1.61-11.454-0.259-20.034-7.218-2.061-14.081-4.937-20.513-8.512-5.109 7.027-10.928 13.832-14.359 13.995-7.132 0.336-38.458-29.744-37.691-37.691 0.364-3.776 7.016-9.499 13.889-14.483-3.556-6.414-6.422-13.267-8.483-20.466-8.579 1.352-17.494 2.052-20.034-0.259-5.282-4.802-6.164-48.225 0-53.306 2.924-2.405 11.666-1.754 20.053-0.412 2.061-7.199 4.927-14.053 8.493-20.465-7.026-5.11-13.832-10.928-13.995-14.36-0.335-7.131 29.744-38.458 37.691-37.691 3.777 0.364 9.499 7.017 14.484 13.89 6.413-3.556 13.266-6.422 20.465-8.484-1.351-8.579-2.051-17.493 0.259-20.034 4.803-5.281 48.225-6.163 53.306 0 2.406 2.924 1.754 11.666 0.413 20.054 7.179 2.052 14.023 4.917 20.417 8.464 4.984-6.873 10.707-13.526 14.484-13.89 7.946-0.767 38.026 30.56 37.69 37.691-0.163 3.432-6.968 9.25-13.995 14.36 3.567 6.412 6.433 13.266 8.494 20.465 8.387-1.342 17.129-1.993 20.052 0.412 6.164 5.081 5.282 48.504 0 53.306" fill="#b079d0"/></g><g transform="translate(250.46 177.49)" fill="#601563"><path d="m0 0c-25.861 1.277-50.497 14.6-61.444 37.672-2.435 5.147-1.725 7.64-0.949 8.589 10.228-24.079 34.106-40.969 61.914-40.969 25.095 0 46.989 13.755 58.54 34.135-2.208-14.553-29.576-40.833-58.061-39.427" fill="#601563"/></g><g transform="translate(250.39 322.55)" fill="#601563"><path d="m0 0c-25.672-1.277-50.128-14.599-60.996-37.671-2.417-5.148-2.061-7.54-1.29-8.489 10.154 24.079 34.205 40.869 61.81 40.869 24.912 0 46.987-13.474 58.453-33.853-2.191 14.553-29.7 40.551-57.977 39.144" fill="#601563"/></g></g><g transform="translate(189.62 154.75)"><path d="m0 0c-0.276 0.865-1.062 1.366-1.904 1.626-0.21 0.065-0.314-0.229-0.144-0.342 0.61-0.408 0.938-1 1.364-1.572 0.234-0.315 0.824-0.149 0.684 0.288" fill="#06273d"/></g><g transform="translate(192.76 156.73)"><path d="m0 0c-0.607 0.901-1.492 1.658-2.241 2.443-0.312 0.328-0.754-0.087-0.588-0.453 0.423-0.932 0.769-2.01 1.342-2.859 0.616-0.914 2.109-0.054 1.487 0.869" fill="#06273d"/></g><g transform="translate(195.77 161.15)"><path d="m0 0c-0.955 0.991-2.122 1.806-3.192 2.67-0.33 0.266-0.952-0.092-0.647-0.499 0.846-1.137 1.638-2.367 2.621-3.39 0.77-0.8 1.987 0.419 1.218 1.219" fill="#06273d"/></g><g transform="translate(198.73 164.1)"><path d="m0 0c-0.404 0.492-0.831 0.964-1.285 1.41-0.443 0.436-1.007 0.727-1.55 1.021-0.386 0.209-0.726-0.269-0.454-0.589 0.394-0.464 0.737-0.967 1.169-1.396 0.431-0.427 0.834-0.878 1.22-1.346 0.521-0.633 1.417 0.272 0.9 0.9" fill="#06273d"/></g><g transform="translate(138.96 225.21)"><path d="m0 0c-0.16 0.383-0.29 0.815-0.492 1.178-0.195 0.348-0.498 0.651-0.748 0.96-0.286 0.353-0.751-0.043-0.688-0.401 0.067-0.381 0.098-0.797 0.241-1.157 0.145-0.365 0.35-0.718 0.523-1.07 0.315-0.636 1.444-0.18 1.164 0.49" fill="#06273d"/></g><g transform="translate(142.52 225.16)"><path d="m0 0c-0.532 0.955-1.271 1.816-1.919 2.696-0.391 0.531-1.27 0.057-0.906-0.529 0.606-0.972 1.161-2.004 1.884-2.893 0.441-0.541 1.262 0.151 0.941 0.726" fill="#06273d"/></g><g transform="translate(149.99 225.95)"><path d="m0 0c-0.409 1.132-0.759 2.249-1.387 3.28-0.329 0.542-0.771 1.484-1.419 1.694-0.056 0.017-0.117-3e-3 -0.159-0.042-0.033-0.032-0.067-0.063-0.1-0.094-0.04-0.038-0.038-0.093-0.018-0.14l0.044-0.102c0.026-0.062 0.122-0.04 0.137 0.017-0.198-0.748 0.182-1.942 0.391-2.649 0.26-0.88 0.71-1.728 1.074-2.57 0.35-0.811 1.74-0.232 1.437 0.606" fill="#06273d"/></g><g transform="translate(153.45 228.71)"><path d="m0 0c-0.038 0.625-0.938 0.628-0.974 0-0.023-0.428-0.047-0.855-0.071-1.282-0.04-0.724 1.168-0.724 1.123 0-0.026 0.427-0.052 0.854-0.078 1.282" fill="#06273d"/></g><g transform="translate(154.89 310.59)"><path d="m0 0-0.486-1.371c-0.131-0.368 0.423-0.578 0.616-0.26 0.253 0.419 0.506 0.838 0.76 1.256 0.356 0.588-0.647 1.061-0.89 0.375" fill="#06273d"/></g><g transform="translate(157.72 310.67)"><path d="m0 0c-0.816-0.427-1.184-1.216-1.415-2.081-0.137-0.516 0.645-0.887 0.89-0.375 0.314 0.656 0.813 1.175 1.191 1.79 0.267 0.432-0.251 0.883-0.666 0.666" fill="#06273d"/></g><g transform="translate(162.3 307.75)"><path d="m0 0c-0.715-0.566-1.315-1.244-1.807-2.011-0.249-0.388 0.338-0.856 0.647-0.499 0.545 0.63 1.164 1.15 1.886 1.569 0.728 0.423-0.027 1.494-0.726 0.941" fill="#06273d"/></g><g transform="translate(165.97 305.35)"><path d="m0 0c-1.032-0.49-1.645-1.408-2.005-2.471-0.125-0.368 0.423-0.581 0.615-0.259 0.459 0.769 1.165 1.365 1.882 1.89 0.503 0.368 0.081 1.112-0.492 0.84" fill="#06273d"/></g><g transform="translate(274.7 155.22)"><path d="m0 0c-1.046-0.115-2.06-0.317-3.117-0.316-0.447 1e-3 -0.581-0.741-0.11-0.809 1.117-0.163 2.273-0.26 3.376 0.021 0.596 0.153 0.494 1.175-0.149 1.104" fill="#06273d"/></g><g transform="translate(274.33 150.72)"><path d="m0 0c-0.604 0.072-1.227 0.015-1.833 0-0.578-0.015-0.579-0.885 0-0.898 0.606-0.016 1.229-0.074 1.833 0 0.576 0.069 0.577 0.829 0 0.898" fill="#06273d"/></g><g transform="translate(274.98 146.41)"><path d="m0 0c-0.389 0.08-0.78 0.133-1.177 0.141-0.377 7e-3 -0.547-2e-3 -0.782-0.292-0.013-0.016-0.016-0.037 0-0.053 0.22-0.221 0.295-0.24 0.614-0.277 0.395-0.045 0.767-0.123 1.146-0.241 0.463-0.144 0.669 0.625 0.199 0.722" fill="#06273d"/></g><g transform="translate(269.53 135.18)"><path d="m0 0c-0.495 0.677-1.048 1.284-1.692 1.821-0.406 0.338-0.935-0.178-0.583-0.582 0.492-0.564 0.899-1.178 1.24-1.843 0.356-0.697 1.487-0.014 1.035 0.604" fill="#06273d"/></g><g transform="translate(274.62 137.72)"><path d="m0 0c-0.435 0.481-1.015 0.801-1.553 1.16-0.384 0.256-0.861-0.347-0.499-0.647 0.496-0.411 0.97-0.881 1.553-1.159 0.418-0.201 0.823 0.288 0.499 0.646" fill="#06273d"/></g><g transform="translate(334.4 198.68)"><path d="m0 0c-0.673-0.33-1.226-0.997-1.775-1.499-0.469-0.427 0.214-1.087 0.687-0.689 0.575 0.486 1.283 0.943 1.703 1.574 0.268 0.402-0.242 0.798-0.615 0.614" fill="#06273d"/></g><g transform="translate(338.18 196.79)"><path d="m0 0c-0.853-0.539-1.349-1.464-1.716-2.379-0.238-0.593 0.731-0.988 1.027-0.433 0.402 0.755 0.993 1.323 1.508 1.993 0.374 0.486-0.341 1.122-0.819 0.819" fill="#06273d"/></g><g transform="translate(343.79 192.51)"><path d="m0 0c-0.851 0.068-1.746-0.314-2.498-0.677-0.688-0.332-0.072-1.425 0.604-1.035 0.68 0.393 1.412 0.561 2.121 0.874 0.447 0.198 0.167 0.806-0.227 0.838" fill="#06273d"/></g><g transform="translate(345.99 187.72)"><path d="m0 0c-0.184 0.021-0.367 0.042-0.55 0.063-0.691 0.08-0.68-1.16 0.14-1.03 0.176 0.029 0.352 0.056 0.529 0.084 0.543 0.086 0.338 0.83-0.119 0.883" fill="#06273d"/></g><g fill="#601563"><g transform="translate(364.5 230.05)"><path d="m0 0c-0.916 0.05-1.833 0.1-2.749 0.149-0.484 0.027-0.476-0.71 0-0.749 0.916-0.074 1.833-0.149 2.749-0.223 0.525-0.043 0.531 0.795 0 0.823" fill="#601563"/></g><g transform="translate(365.6 232.84)"><path d="m0 0c-0.768 0.027-1.51-0.079-2.237-0.322-0.141-0.047-0.081-0.24 0.059-0.217 0.703 0.109 1.401 0.095 2.098-0.049 0.428-0.088 0.516 0.573 0.08 0.588" fill="#601563"/></g><g transform="translate(364.86 236.14)"><path d="m0 0c-0.246 9e-3 -0.571-0.108-0.657-0.372-0.023-0.07-0.034-0.317 0.103-0.309 0.138 9e-3 0.276 0.179 0.404 0.122 0.462-0.206 0.626 0.541 0.15 0.559" fill="#601563"/></g><g transform="translate(362.61 273.69)"><path d="m0 0c-1.201 0.243-2.285 0.2-3.489-0.014-0.302-0.053-0.214-0.504 0.069-0.515 1.059-0.042 2.133-0.191 3.181-0.338 0.556-0.077 0.818 0.75 0.239 0.867" fill="#601563"/></g><g transform="translate(363.04 270.1)"><path d="m0 0c-0.366 0.025-0.733 0.05-1.1 0.075-0.77 0.052-0.772-1.251 0-1.198 0.367 0.025 0.734 0.05 1.1 0.075 0.674 0.046 0.675 1.002 0 1.048" fill="#601563"/></g><g transform="translate(363.89 266.53)"><path d="m0 0c-0.306 0.122-0.611 0.245-0.916 0.367-0.537 0.215-0.771-0.655-0.239-0.867 0.305-0.122 0.611-0.244 0.916-0.366 0.537-0.215 0.77 0.654 0.239 0.866" fill="#601563"/></g><g transform="translate(364.37 262.31)"><path d="m0 0c-0.062 0.123-0.122 0.245-0.184 0.367-0.28 0.56-1.12 0.068-0.84-0.492l0.183-0.366c0.28-0.561 1.12-0.068 0.841 0.491" fill="#601563"/></g></g><g transform="translate(339.16 302.34)"><path d="m0 0c-1.021 0.824-2.074 1.562-2.979 2.522-0.401 0.426-1.008-0.201-0.635-0.635 0.866-1.009 1.865-2.004 3.07-2.593 0.425-0.208 0.968 0.365 0.544 0.706" fill="#06273d"/></g><g transform="translate(340.62 304.9)"><path d="m0 0c-0.287 0.223-0.565 0.474-0.869 0.673-0.246 0.162-0.543 0.24-0.821 0.338-0.151 0.054-0.301-0.142-0.211-0.275 0.161-0.239 0.307-0.507 0.522-0.701 0.245-0.223 0.534-0.414 0.797-0.618 0.414-0.32 1.001 0.259 0.582 0.583" fill="#06273d"/></g><g transform="translate(343.22 306.7)"><path d="m0 0-2.02 0.917c-0.345 0.157-0.651-0.344-0.301-0.517 0.66-0.327 1.32-0.655 1.98-0.982 0.392-0.193 0.732 0.404 0.341 0.582" fill="#06273d"/></g><g transform="translate(345.7 310.65)"><path d="m0 0c-0.634-0.06-1.269-0.12-1.902-0.18-0.524-0.049-0.529-0.874 0-0.824 0.352 0.034 0.705 0.067 1.058 0.1 0.086-0.062 0.198-0.093 0.331-0.059 0.207 0.051 0.415 0.103 0.622 0.154 0.441 0.109 0.362 0.853-0.109 0.809" fill="#06273d"/></g><g transform="translate(346.25 313.18)"><path d="m0 0c-0.093 0.165-0.185 0.33-0.276 0.495-0.102 0.182-0.447 0.114-0.418-0.114 0.021-0.184 0.044-0.367 0.065-0.551 0.069-0.572 0.887-0.293 0.629 0.17" fill="#06273d"/></g><g transform="translate(343.87 318.04)"><path d="m0 0-0.363 0.552c-0.37 0.56-1.279 0.036-0.906-0.53 0.122-0.184 0.243-0.367 0.364-0.551 0.37-0.561 1.278-0.036 0.905 0.529" fill="#06273d"/></g><g transform="translate(272.89 347.46)"><path d="m0 0c-1.222 0.716-2.656 1.031-4.053 1.178-0.53 0.055-0.515-0.759 0-0.824 1.325-0.167 2.503-0.621 3.736-1.107 0.442-0.174 0.71 0.523 0.317 0.753" fill="#06273d"/></g><g transform="translate(272.99 350.67)"><path d="m0 0c-0.882 0.241-1.778 0.394-2.689 0.467-0.416 0.033-0.52-0.678-0.1-0.736 0.87-0.12 1.718-0.319 2.551-0.597 0.547-0.183 0.799 0.714 0.238 0.866" fill="#06273d"/></g><g transform="translate(274.06 354.41)"><path d="m0 0c-0.615 0.106-1.23 0.211-1.845 0.317-0.421 0.072-0.609-0.558-0.179-0.65 0.608-0.129 1.216-0.259 1.825-0.389 0.474-0.101 0.669 0.641 0.199 0.722" fill="#06273d"/></g><g transform="translate(274.36 358.09)"><path d="m0 0c-0.458 0.218-0.801 0.326-1.308 0.348-0.356 0.016-0.427-0.451-0.17-0.628 0.391-0.266 0.698-0.379 1.161-0.473 0.428-0.086 0.764 0.541 0.317 0.753" fill="#06273d"/></g><g fill="#601563"><g transform="translate(313.25 222.43)"><path d="m0 0c-0.516-1.676-1.151-3.389-1.261-5.155-0.016-0.257 0.155-0.541 0.379-0.661 0.052-0.028 0.105-0.056 0.156-0.083 0.377-0.203 0.754-8e-3 0.901 0.366 0.297 0.755 0.803 1.423 1.139 2.161 0.359 0.787 0.675 1.595 1.012 2.392 0.722 1.703-1.787 2.734-2.326 0.98" fill="#601563"/></g><g transform="translate(317.75 232.17)"><path d="m0 0c-0.115-1.52-0.111-2.999-0.066-4.522 0.014-0.481 0.808-0.641 0.882-0.12 0.221 1.559 0.4 3.069 0.457 4.642 0.031 0.826-1.211 0.809-1.273 0" fill="#601563"/></g><g transform="translate(321.53 260.23)"><path d="m0 0c-0.435 1.211-0.758 2.447-0.969 3.716-0.082 0.495-0.926 0.386-0.882-0.119 0.116-1.327 0.344-2.631 0.696-3.915 0.205-0.75 1.414-0.404 1.155 0.318" fill="#601563"/></g><g transform="translate(321.83 257.16)"><path d="m0 0c-0.093 0.492-0.935 0.387-0.883-0.12 0.06-0.586 0.119-1.172 0.18-1.757 0.076-0.753 1.171-0.616 1.029 0.139-0.108 0.579-0.218 1.158-0.326 1.738" fill="#601563"/></g></g><g transform="translate(296.64 305.62)"><path d="m0 0c-1.19 1.114-2.581 2.046-3.877 3.037-0.303 0.231-0.693-0.278-0.408-0.53 1.225-1.081 2.413-2.258 3.74-3.213 0.417-0.299 0.913 0.361 0.545 0.706" fill="#06273d"/></g><g transform="translate(301.21 301.48)"><path d="m0 0c-0.659 0.945-1.484 1.729-2.476 2.318-0.338 0.202-0.607-0.295-0.302-0.517 0.827-0.603 1.498-1.365 2.002-2.255 0.288-0.507 1.104-0.018 0.776 0.454" fill="#06273d"/></g><g transform="translate(308 292.58)"><path d="m0 0c-0.748 1.775-1.718 3.133-3.204 4.365-0.188 0.156-0.416-0.077-0.265-0.264 1.066-1.329 2.011-2.868 2.716-4.418 0.191-0.42 0.935-0.114 0.753 0.317" fill="#06273d"/></g><g fill="#601563"><g transform="translate(341.34 222.56)"><path d="m0 0c-0.345-5.843-3.864-14.905-7.291-18.99-0.58-0.691 1.001-1.49 1.354-1.106 0.119 0.13 0.241 0.265 0.364 0.402 3.485 6.322 6.295 13.066 8.322 20.147-0.521 1.377-2.647 1.265-2.749-0.453" fill="#601563"/></g><g transform="translate(344.11 276.99)"><path d="m0 0c-2.059 7.188-4.919 14.032-8.469 20.437-0.219 0.249-0.654 0.152-0.66-0.218-0.057-3.426 2.095-6.86 3.355-9.957 1.325-3.259 1.79-8.064 4.452-10.431 0.832-0.74 2.29-0.623 2.798 0.394-0.493-0.073-0.985-0.147-1.476-0.225" fill="#601563"/></g><g transform="translate(295.08 166.6)"><path d="m0 0c-5.517-4.814-10.601-6.347-17.36-8.51-1.386-0.443-1.461-2.088-0.721-2.161 7.18 2.052 14.023 4.917 20.417 8.464 8e-3 -0.011 0.017-0.022 0.025-0.033 0.189 0.27 0.315 0.53 0.349 0.771 0.186 1.315-1.63 2.411-2.71 1.469" fill="#601563"/></g><g transform="translate(225.2 155.85)"><path d="m0 0c1.39 0.331 1.522 2.239 0.385 2.943-3.188 1.972-7.406 2.377-10.983 3.483-4.017 1.242-8.061 2.571-12.204 3.317-0.198 0.036-0.406-0.216-0.219-0.376 0.717-0.608 1.514-1.249 2.37-1.898 5.835-3.064 12.014-5.566 18.473-7.415-0.017-0.109-0.032-0.218-0.05-0.327 0.76 0.028 1.508 0.102 2.228 0.273" fill="#601563"/></g></g><g transform="translate(297.52 340.93)"><path d="m 0,0 -8.554,-8.561 c 0,0 -10.583,7.58 -10.544,9.213 0.038,1.634 7.723,9.947 9.874,9.884 C -7.072,10.473 0,0 0,0" fill="#fdd622"/></g><g transform="translate(332.08 340.93)"><path d="m0 0 8.554-8.561s10.583 7.58 10.544 9.213c-0.039 1.634-7.723 9.947-9.875 9.884s-9.223-10.536-9.223-10.536" fill="#fdd622"/></g><path d="m319.07 349.65h-8.556v7.26h8.556z" fill="#601563"/><g transform="translate(354.01 312.65)"><path d="m0 0c0-21.658-17.557-39.214-39.215-39.214-21.657 0-39.214 17.556-39.214 39.214s17.557 39.214 39.214 39.214c21.658 0 39.215-17.556 39.215-39.214" fill="#fdd622"/></g><g clip-path="url(#clipPath250)" opacity=".39999"><g transform="translate(278.73 310.99)"><path d="m0 0c0-14.421 7.777-27.017 19.365-33.828-13.304 6.269-22.515 19.807-22.515 35.495 0 21.657 17.555 39.212 39.212 39.212 7.236 0 14.012-1.959 19.831-5.376-5.06 2.375-10.711 3.709-16.672 3.709-21.665 0-39.221-17.555-39.221-39.212" fill="#fdd622"/></g></g><g fill="#601563"><g fill="#601563"><g clip-path="url(#clipPath266)" fill="#601563" opacity=".60001"><g transform="translate(354.01 312.65)" fill="#601563"><path d="m0 0c0-21.665-17.556-39.221-39.213-39.221-8.452 0-16.28 2.676-22.682 7.228 5.485-2.818 11.753-4.41 18.406-4.41 21.657 0 39.213 16.872 39.213 37.695 0 20.815-17.556 37.687-39.213 37.687 1.4 0.159 2.835 0.233 4.276 0.233 21.657 0 39.213-17.555 39.213-39.212" fill="#601563"/></g></g></g></g><g transform="translate(344.07 312.65)" fill="#601563"><path d="m0 0c0-16.165-13.104-29.27-29.271-29.27-16.165 0-29.269 13.105-29.269 29.27 0 16.166 13.104 29.27 29.269 29.27 16.167 0 29.271-13.104 29.271-29.27" fill="#601563"/></g><g transform="translate(341.09 312.38)"><path d="m0 0c0-14.817-12.012-26.829-26.829-26.829s-26.828 12.012-26.828 26.829 12.011 26.829 26.828 26.829 26.829-12.012 26.829-26.829" fill="#fffdff"/></g><g transform="translate(320.73 354.64)"><path d="m 0,0 h -12.102 c 0,0 -2.117,5.157 -0.934,5.61 1.182,0.452 12.494,0.629 13.971,0 C 2.411,4.981 0,0 0,0" fill="#fdd622"/></g><g transform="translate(314.62 310.86)" fill="#b079d0"><path d="m0 0-0.531 0.225c-0.628 0.266-0.922 0.99-0.656 1.619l7.742 18.281c0.265 0.627 0.99 0.921 1.618 0.655l0.531-0.225c0.628-0.265 0.922-0.99 0.655-1.618l-7.741-18.281c-0.265-0.628-0.99-0.922-1.618-0.656" fill="#b079d0"/></g><g transform="translate(319.07 312.65)" fill="#b079d0"><path d="m0 0c0-2.36-1.913-4.273-4.273-4.273s-4.273 1.913-4.273 4.273 1.913 4.273 4.273 4.273 4.273-1.913 4.273-4.273" fill="#b079d0"/></g><g clip-path="url(#clipPath302)" opacity=".60001"><g transform="translate(332.63 343.34)"><path d="m0 0c-1.624 1.135-3.451 1.949-5.294 2.663-0.556 0.215-0.909-0.67-0.401-0.953 1.696-0.94 3.254-2.063 4.841-3.172 0.894-0.626 1.742 0.841 0.854 1.462m12.044-14.544c-0.239 0.433-0.5 1.076-0.995 1.244-0.02 7e-3 -0.047-8e-3 -0.051-0.029-0.091-0.484 0.247-1.031 0.361-1.504 0.158-0.654 0.304-1.325 0.412-1.99 0.1-0.618 1.042-0.356 0.941 0.26-0.119 0.734-0.307 1.366-0.668 2.019m-2.032 3.873c-0.56 1.081-1.244 2.077-2.044 2.994-0.335 0.384-0.864-0.168-0.553-0.552 0.722-0.893 1.32-1.865 1.81-2.902 0.248-0.526 1.058-0.065 0.787 0.46m-26.73-54.14c-0.449-0.212-0.939-0.317-1.409-0.474-0.06-0.019-0.063-0.107 0-0.125 0.555-0.161 1.067-0.061 1.609 0.122 0.354 0.12 0.146 0.64-0.2 0.477m-3.93-1.041c-0.94 0.014-1.86-0.051-2.76 0.227-0.063 0.02-0.062 0.107 0 0.126 0.899 0.281 1.822 0.218 2.76 0.233 0.377 6e-3 0.377-0.591 0-0.586" fill="#fdd622"/></g></g><g transform="translate(408.35 400.83)" fill="#601563"><path d="m0 0c0-6.965-5.646-12.611-12.611-12.611s-12.612 5.646-12.612 12.611 5.647 12.611 12.612 12.611 12.611-5.646 12.611-12.611" fill="#601563"/></g><g transform="translate(405.15 400.83)"><path d="m0 0c0-5.199-4.214-9.413-9.413-9.413-5.198 0-9.413 4.214-9.413 9.413s4.215 9.413 9.413 9.413c5.199 0 9.413-4.214 9.413-9.413" fill="#fdd622"/></g><g transform="translate(404.36 400.83)"><path d="m0 0c0-4.765-3.862-8.628-8.628-8.628-4.765 0-8.628 3.863-8.628 8.628s3.863 8.628 8.628 8.628c4.766 0 8.628-3.863 8.628-8.628" fill="#fffdff"/></g><g transform="translate(395.65 400.26)" fill="#601563"><path d="m0 0-0.106 0.045c-0.22 0.093-0.323 0.347-0.23 0.566l2.462 5.815c0.094 0.22 0.347 0.323 0.566 0.229l0.107-0.045c0.22-0.092 0.322-0.346 0.229-0.566l-2.462-5.815c-0.093-0.219-0.346-0.322-0.566-0.229" fill="#601563"/></g><g transform="translate(397.11 400.83)" fill="#601563"><path d="m0 0c0-0.759-0.615-1.375-1.374-1.375s-1.374 0.616-1.374 1.375 0.615 1.374 1.374 1.374 1.374-0.615 1.374-1.374" fill="#601563"/></g><g transform="translate(80.551 351.97)"><path d="m0 0c-6.152 3.266-8.492 10.9-5.226 17.052s10.9 8.492 17.052 5.226c6.152-3.265 8.492-10.9 5.226-17.052-3.265-6.152-10.9-8.492-17.052-5.226" fill="#ea7701"/></g><g transform="translate(82.051 354.79)"><path d="m0 0c-4.592 2.438-6.338 8.136-3.9 12.728 2.437 4.591 8.135 6.338 12.727 3.9 4.592-2.437 6.339-8.135 3.901-12.728-2.437-4.591-8.136-6.338-12.728-3.9" fill="#033e5d"/></g><g transform="translate(82.419 355.49)"><path d="m 0,0 c -4.209,2.234 -5.81,7.457 -3.575,11.666 2.234,4.209 7.457,5.81 11.666,3.576 C 12.3,13.007 13.9,7.784 11.667,3.575 9.432,-0.634 4.209,-2.234 0,0" fill="#fffdff"/></g><g transform="translate(86.011 363.45)"><path d="m0 0 0.09 0.072c0.185 0.151 0.457 0.123 0.608-0.063l3.981-4.901c0.151-0.185 0.122-0.457-0.063-0.608l-0.09-0.072c-0.185-0.151-0.457-0.122-0.608 0.063l-3.98 4.901c-0.151 0.185-0.123 0.457 0.062 0.608" fill="#033e5d"/></g><g transform="translate(85.82 361.89)"><path d="m0 0c-0.67 0.356-0.925 1.188-0.57 1.858 0.356 0.671 1.188 0.926 1.859 0.57 0.67-0.356 0.925-1.188 0.569-1.858-0.356-0.671-1.188-0.925-1.858-0.57" fill="#033e5d"/></g><g transform="translate(406.04 132.13)"><path d="m0 0c6.895-0.99 11.681-7.383 10.689-14.276-0.99-6.895-7.382-11.681-14.276-10.69-6.894 0.99-11.68 7.383-10.689 14.277 0.99 6.894 7.382 11.679 14.276 10.689" fill="#fdd622"/></g><g transform="translate(405.58 128.97)" fill="#601563"><path d="m0 0c5.146-0.739 8.718-5.51 7.979-10.656-0.741-5.146-5.511-8.718-10.657-7.979-5.146 0.74-8.718 5.511-7.978 10.656 0.739 5.147 5.51 8.719 10.656 7.979" fill="#601563"/></g><g transform="translate(405.58 128.97)"><path d="m0 0c4.717-0.678 7.991-5.051 7.313-9.768-0.677-4.716-5.05-7.991-9.767-7.313s-7.991 5.051-7.314 9.768c0.678 4.716 5.051 7.991 9.768 7.313" fill="#fffdff"/></g><g transform="translate(404.79 119.48)" fill="#601563"><path d="m0 0-0.06-0.099c-0.123-0.204-0.388-0.269-0.593-0.146l-5.406 3.265c-0.204 0.123-0.269 0.388-0.146 0.592l0.059 0.099c0.125 0.205 0.39 0.27 0.594 0.146l5.406-3.263c0.204-0.124 0.269-0.39 0.146-0.594" fill="#601563"/></g><g transform="translate(404.44 121.01)" fill="#601563"><path d="m0 0c0.751-0.107 1.272-0.804 1.164-1.556-0.107-0.751-0.804-1.272-1.556-1.164-0.751 0.108-1.272 0.804-1.164 1.556 0.108 0.751 0.804 1.272 1.556 1.164" fill="#601563"/></g><g transform="translate(249.74 252.24)"><path d="m0 0c-27.6 0-22.173-59.387-22.173-59.387s5.733-3.37 21.738-3.468c22.678-0.139 23.983 3.29 23.983 3.29s5.115 59.565-23.548 59.565" fill="#bcf7f5"/></g><g transform="translate(245.68 250.59)"><path d="m0 0h8.667s0.242-6.63-3.899-6.63c-4.142 0-4.768 6.63-4.768 6.63" fill="#f4bea6"/></g><g transform="translate(249.79 182.67)"><path d="m0 0c-0.435 0-0.861 3e-3 -1.277 0.01-10.434 0.153-12.375-0.01-16.275 2.105-4.34 2.353-2.457 6.943-2.457 6.943s6.767-0.623 19.659-0.61c18.267 0.019 20.716 0.61 20.716 0.61s1.801-3.584-2.512-6.533c-3.236-2.212-7.473-2.525-17.854-2.525" fill="#1e2c30"/></g><g transform="translate(250.14 242.65)"><path d="m0 0c-2.379-2.008-7.32-15.979-4.009-29.432 3.176-12.908 3.119-15.583 4.03-15.584 0.911 0 2.588 8.325 4.082 15.506 1.707 8.204 0.333 23.563-4.103 29.51" fill="#ce4441"/></g><g transform="translate(247.09 244.65)"><path d="M 0,0 C 1.806,2.117 3.75,1.874 5.791,0 5.791,0 4.787,-5.508 2.896,-5.508 1.003,-5.508 0,0 0,0" fill="#ce4441"/></g><g transform="translate(241.27 250.59)"><path d="m0 0 2.125-7.676 6.122 3.241z" fill="#e7f7f7"/></g><g transform="translate(258.69 250.59)"><path d="m0 0-2.125-7.676-6.122 3.241z" fill="#e7f7f7"/></g><g transform="translate(232.87 269.38)"><path d="m0 0c-4.12 4.812-8.138 2.053-6.297-3.184 1.839-5.236 7.327-4.308 7.327-4.308z" fill="#f4bea6"/></g><g transform="translate(267.1 269.38)"><path d="m0 0c4.12 4.812 8.138 2.053 6.298-3.184-1.84-5.236-6.7-4.231-6.7-4.231z" fill="#f4bea6"/></g><g transform="translate(268.67 278.14)"><path d="m0 0s2.877-30.758-18.278-30.758-18.593 31.512-19.222 32.458c6.141 13.883 32.846 13.883 37.5-1.7" fill="#f7c79f"/></g><g transform="translate(228.34 283.97)"><path d="m0 0s-0.039-13.25 4.5-19.727c0 0-1.649 12.894-1.149 17.497s-3.351 2.23-3.351 2.23" fill="#06273d"/></g><g transform="translate(228.43 298.69)"><path d="m0 0c-3.994-3.615-8.4-24.736 11.156-21.132 16.942 3.122 25.65 4.09 27.756-2.737 1.97-6.382 0.277-11.391 0.277-11.391s9.45 16.668 1.666 25.748c-11.227 13.098-27.977 4.257-33.719 5.682-5.217 1.294-7.136 3.83-7.136 3.83" fill="#06273d"/></g><g transform="translate(253.35 256.42)"><path d="m0 0c0.036-2.093-4.408-2.944-5.076-1.068-0.075 0.21-0.374 0.088-0.355-0.11 0.297-3.115 6.02-2.301 6.422 1.197 0.081 0.709-1.004 0.709-0.991-0.019" fill="#d36866"/></g><g transform="translate(275.49 191.12)"><path d="m0 0h-51.016c-2.338 0-4.307 1.745-4.59 4.065l-4.265 35.038c-0.335 2.754 1.815 5.182 4.59 5.182h59.547c2.774 0 4.924-2.428 4.588-5.182l-4.264-35.038c-0.282-2.32-2.252-4.065-4.59-4.065" fill="#7d979f"/></g><g transform="translate(241.7 259.97)"><path d="m0 0h-0.445c-0.922 0-1.669 0.748-1.669 1.669v1.393c0 0.921 0.747 1.668 1.669 1.668h0.445c0.922 0 1.669-0.747 1.669-1.668v-1.393c0-0.921-0.747-1.669-1.669-1.669" fill="#06273d"/></g><g transform="translate(259.14 259.97)"><path d="m0 0h-0.445c-0.922 0-1.669 0.748-1.669 1.669v1.393c0 0.921 0.747 1.668 1.669 1.668h0.445c0.922 0 1.669-0.747 1.669-1.668v-1.393c0-0.921-0.747-1.669-1.669-1.669" fill="#06273d"/></g><g transform="translate(242.34 269.11)"><path d="m0 0c-0.396 0.672-0.997 1.052-1.791 0.955-0.667-0.082-1.218-0.493-1.522-1.084-0.059-0.112 0.081-0.225 0.176-0.136 0.756 0.714 1.8 0.473 2.431-0.279 0.332-0.397 0.96 0.112 0.706 0.544" fill="#06273d"/></g><g transform="translate(260.59 269.25)"><path d="m0 0c-0.876 1.312-2.785 1.322-3.73 0.069-0.192-0.254 0.2-0.492 0.411-0.317 0.762 0.633 1.911 0.349 2.495-0.387 0.369-0.465 1.153 0.142 0.824 0.635" fill="#06273d"/></g><g transform="translate(243.71 113.55)" fill="#601563"><path d="m0 0c-6.728-1.746-12.812-1.87-18.104 0 0.446 24.729 2.423 48.349 6.508 70.444 0.368 3.993 3.718 7.047 7.727 7.047h1e-3c4.456 0 7.997-3.745 7.748-8.194-3.168-21.204-4.127-44.642-3.88-69.297" fill="#601563"/></g><g transform="translate(223.96 110.85)"><path d="m 0,0 c 5.562,-4.213 15.212,-4.834 20.955,0 0,0 0.521,11.465 -10.477,11.465 C -0.521,11.465 0,0 0,0" fill="#1e2c30"/></g><g transform="translate(256.25 113.55)" fill="#601563"><path d="m0 0c6.728-1.746 12.812-1.87 18.104 0-0.446 24.729-2.423 48.349-6.508 70.444-0.369 3.993-3.718 7.047-7.728 7.047-4.457 0-7.998-3.745-7.749-8.194 3.169-21.204 4.127-44.642 3.881-69.297" fill="#601563"/></g><g transform="translate(276.01 110.85)"><path d="m0 0c-5.563-4.213-15.212-4.834-20.956 0 0 0-0.52 11.465 10.478 11.465s10.478-11.465 10.478-11.465" fill="#1e2c30"/></g><g clip-path="url(#clipPath466)" opacity=".5"><g transform="translate(256.13 214)"><path d="m0 0c0-3.394-2.751-6.145-6.145-6.145-3.393 0-6.144 2.751-6.144 6.145 0 3.393 2.751 6.144 6.144 6.144 3.394 0 6.145-2.751 6.145-6.144" fill="#7d979f"/></g></g><g clip-path="url(#clipPath482)" opacity=".44"><g transform="translate(131.07 152.87)"><path d="m0 0c-12.95 14.148-22.822 31.161-28.025 49.673-0.045 0.16-0.32 0.105-0.29-0.063 3.498-19.589 12.612-37.265 27.143-50.972 0.861-0.813 1.932 0.532 1.172 1.362" fill="#fffdff"/></g><g transform="translate(107.68 159.93)"><path d="m0 0c-5.72 7.753-9.939 16.05-13.786 24.856-0.156 0.359-0.815 0.286-0.726-0.155 1.935-9.575 6.705-18.335 12.971-25.764 0.761-0.904 2.27 0.076 1.541 1.063" fill="#fffdff"/></g><g transform="translate(422.69 250.33)"><path d="m0 0c-0.087 0.329-0.573 0.189-0.506-0.139 2.457-12.009 0.936-24.408-3.942-35.628-0.281-0.647 0.642-1.225 0.969-0.566 5.7 11.484 6.74 23.969 3.479 36.333" fill="#fffdff"/></g><g transform="translate(431.85 244.64)"><path d="m0 0c-0.127 0.617-1.052 0.353-0.938-0.259 1.207-6.539 1.256-13.102 0.317-19.681-0.1-0.702 0.963-1.018 1.083-0.299 1.142 6.796 0.932 13.497-0.462 20.239" fill="#fffdff"/></g><g transform="translate(398.16 356.17)"><path d="m0 0c-5.116 11.866-13.733 21.474-24.822 28.053-0.462 0.274-0.85-0.416-0.416-0.711 10.42-7.095 18.485-16.775 23.815-28.173 0.453-0.97 1.834-0.124 1.423 0.831" fill="#fffdff"/></g><g transform="translate(401.07 363.96)"><path d="m0 0c-3.899 10.182-11.261 18.074-20.975 22.993-0.512 0.259-0.962-0.494-0.453-0.776 9.1-5.04 16.025-13.02 20.056-22.595 0.346-0.823 1.704-0.49 1.372 0.378" fill="#fffdff"/></g><g transform="translate(128.81 366.91)"><path d="m0 0c-10.317-9.469-20.342-19.281-24.436-33.075-0.081-0.272 0.306-0.442 0.416-0.169 5.174 12.75 15.325 22.56 25.04 31.95 0.751 0.726-0.231 2.018-1.02 1.294" fill="#fffdff"/></g><g transform="translate(113.31 364.11)"><path d="m0 0c-6.934-7.896-12.762-16.647-16.846-26.355-0.34-0.809 0.869-1.278 1.249-0.509 4.594 9.318 9.872 18.155 16.374 26.277 0.396 0.495-0.368 1.052-0.777 0.587" fill="#fffdff"/></g><g transform="translate(254.39 440.05)"><path d="m0 0c-15.222 0.393-29.675-2.446-43.928-7.762-0.518-0.193-0.32-0.998 0.233-0.844 14.218 3.948 28.964 5.784 43.695 6.27 1.501 0.049 1.507 2.297 0 2.336" fill="#fffdff"/></g><g transform="translate(252.17 430.06)"><path d="m0 0c-6.548 0.132-12.953-0.585-19.365-1.885-0.621-0.126-0.348-1.036 0.259-0.939 6.331 1.014 12.698 1.374 19.106 1.364 0.94-1e-3 0.939 1.441 0 1.46" fill="#fffdff"/></g><g transform="translate(275.86 81.77)"><path d="m0 0c-12.776-2.36-25.732-3.36-38.71-2.708-1.079 0.054-1.057-1.583 2e-3 -1.667 13.319-1.055 26.173-0.316 39.216 2.539 1.206 0.264 0.684 2.057-0.508 1.836" fill="#fffdff"/></g><g transform="translate(285.79 72.854)"><path d="m0 0c-14.035-2.169-28.092-3.212-42.297-3.031-0.856 0.011-0.825-1.234 1e-3 -1.31 14.4-1.312 28.688-0.592 42.867 2.276 1.371 0.276 0.764 2.271-0.571 2.065" fill="#fffdff"/></g><g transform="translate(389.13 137.04)"><path d="m0 0c-3.058-5.825-7.09-10.833-11.938-15.264-0.431-0.393 0.201-1.008 0.635-0.635 5.025 4.307 9.034 9.584 12.078 15.446 0.267 0.513-0.505 0.967-0.775 0.453" fill="#fffdff"/></g><g transform="translate(80.698 173.55)"><path d="m0 0c-5.937 10.268-10.175 21.41-12.529 33.034-0.163 0.806-1.382 0.484-1.233-0.318 2.218-11.917 6.418-22.948 12.718-33.304 0.399-0.656 1.432-0.083 1.044 0.588" fill="#fffdff"/></g><g transform="translate(120.46 400.73)"><path d="m0 0c-6.231-4.052-11.709-8.841-16.554-14.482-0.279-0.326 0.178-0.798 0.477-0.477 4.954 5.322 10.548 10.024 16.644 13.989 0.604 0.392 0.041 1.366-0.567 0.97" fill="#fffdff"/></g></g><g transform="translate(110.75 92.321)"><path d="m0 0c-3.077 8.733 1.508 18.307 10.241 21.384 8.733 3.076 18.307-1.509 21.384-10.242 3.076-8.733-1.509-18.306-10.242-21.383-8.733-3.076-18.306 1.509-21.383 10.241m40.443 21.309c-0.789 0.333-2.828-0.572-4.734-1.6-1.08 1.521-2.321 2.896-3.69 4.11 1.206 1.741 2.294 3.638 2.067 4.556-0.478 1.933-10.336 6.41-11.985 5.74-0.794-0.322-1.597-2.405-2.217-4.48-1.803 0.306-3.653 0.413-5.516 0.302-0.378 2.083-0.95 4.192-1.759 4.681-1.704 1.028-11.841-2.776-12.534-4.416-0.333-0.789 0.571-2.828 1.6-4.733-1.526-1.083-2.904-2.328-4.119-3.7-1.784 1.227-3.716 2.347-4.535 2.101-1.706-0.512-6.58-10.18-5.741-11.985 0.398-0.858 2.436-1.654 4.467-2.254-0.307-1.804-0.412-3.653-0.3-5.517-2.129-0.392-4.285-0.966-4.691-1.719-0.843-1.568 2.547-11.852 4.416-12.535 0.888-0.324 2.891 0.553 4.75 1.564 1.081-1.522 2.324-2.896 3.693-4.109-1.228-1.784-2.348-3.715-2.102-4.536 0.512-1.705 10.18-6.579 11.986-5.74 0.857 0.399 1.653 2.437 2.253 4.467 1.804-0.306 3.654-0.412 5.517-0.3 0.393-2.129 0.966-4.285 1.72-4.69 1.568-0.844 11.851 2.546 12.534 4.416 0.325 0.887-0.552 2.89-1.563 4.75 1.518 1.078 2.889 2.317 4.1 3.682 1.74-1.205 3.638-2.294 4.556-2.067 1.932 0.477 6.41 10.337 5.74 11.985-0.322 0.794-2.405 1.597-4.481 2.217 0.308 1.804 0.414 3.653 0.303 5.516 2.082 0.379 4.192 0.95 4.68 1.759 1.029 1.705-2.775 11.841-4.415 12.535" fill="#fdd622"/></g><g transform="translate(167.99 84.452)"><path d="m0 0c-2.159 6.127 1.059 12.844 7.186 15.002 6.127 2.159 12.843-1.058 15.002-7.186 2.158-6.127-1.059-12.843-7.186-15.002-6.127-2.158-12.843 1.059-15.002 7.186m28.375 14.949c-0.554 0.235-1.984-0.4-3.321-1.122-0.758 1.069-1.629 2.032-2.59 2.884 0.847 1.221 1.61 2.553 1.451 3.196-0.335 1.357-7.252 4.498-8.409 4.029-0.557-0.227-1.12-1.689-1.555-3.145-1.265 0.216-2.563 0.29-3.87 0.213-0.266 1.46-0.666 2.941-1.234 3.283-1.196 0.722-8.308-1.947-8.794-3.098-0.234-0.553 0.401-1.984 1.122-3.321-1.071-0.76-2.037-1.633-2.89-2.596-1.251 0.862-2.606 1.648-3.182 1.475-1.196-0.359-4.616-7.143-4.027-8.409 0.279-0.602 1.709-1.16 3.133-1.581-0.214-1.266-0.289-2.564-0.21-3.87-1.494-0.277-3.006-0.679-3.291-1.207-0.591-1.1 1.787-8.315 3.099-8.794 0.622-0.228 2.027 0.387 3.332 1.096 0.758-1.067 1.63-2.031 2.591-2.882-0.862-1.251-1.647-2.607-1.475-3.182 0.359-1.196 7.142-4.616 8.409-4.028 0.602 0.28 1.161 1.71 1.582 3.133 1.265-0.213 2.563-0.288 3.87-0.21 0.276-1.493 0.678-3.005 1.207-3.291 1.099-0.59 8.315 1.788 8.794 3.099 0.227 0.623-0.388 2.028-1.097 3.332 1.065 0.757 2.027 1.626 2.876 2.585 1.222-0.847 2.553-1.61 3.197-1.451 1.356 0.336 4.497 7.252 4.028 8.409-0.226 0.557-1.688 1.12-3.144 1.556 0.215 1.264 0.29 2.562 0.212 3.87 1.461 0.265 2.941 0.666 3.284 1.233 0.722 1.197-1.948 8.309-3.098 8.794" fill="#fffdff"/></g><g transform="translate(341.89 417.28)"><path d="m0 0-5.451 7.492 3.618 8.53 11.475 1.312-3.619-8.529 5.452-7.492z" fill="#fffdff"/></g><g transform="translate(329.28 406.99)"><path d="m0 0c-7.749-14.184-25.529-19.4-39.713-11.651-14.184 7.75-19.4 25.53-11.651 39.713 7.749 14.185 25.529 19.401 39.714 11.651 14.183-7.749 19.399-25.529 11.65-39.713" fill="#fffdff"/></g><g transform="translate(312.35 437.05)"><path d="m0 0c-8.838 4.829-19.956 1.567-24.784-7.271s-1.568-19.956 7.271-24.785c8.838-4.828 19.956-1.566 24.784 7.271 4.83 8.838 1.568 19.956-7.271 24.785m-20.921-38.294c-12.277 6.708-16.809 22.153-10.101 34.431s22.153 16.809 34.43 10.101c12.278-6.707 16.81-22.153 10.102-34.43-6.707-12.278-22.154-16.809-34.431-10.102" fill="#ea7701"/></g><g transform="translate(313.87 415.41)"><path d="m0 0c-3.099-5.673-10.211-7.759-15.884-4.66-5.674 3.099-7.76 10.211-4.66 15.885 3.1 5.673 10.211 7.759 15.884 4.66 5.674-3.1 7.76-10.212 4.66-15.885" fill="#ea7701"/></g><g transform="translate(303.73 419.84)"><path d="m0 0-0.27 2.354 44.311 5.069 0.27-2.354z" fill="#fffdff"/></g><g transform="translate(77.638 306.78)"><path d="m0 0c-18.057 3.772-35.754-7.808-39.526-25.865-3.773-18.057 7.808-35.754 25.865-39.527 18.057-3.772 35.754 7.809 39.526 25.866 3.773 18.057-7.807 35.754-25.865 39.526m-1.393-6.666c14.354-2.998 23.591-17.115 20.593-31.468-2.999-14.353-17.116-23.591-31.469-20.592-14.353 2.998-23.59 17.115-20.592 31.468 2.999 14.353 17.115 23.591 31.468 20.592" fill="#fffdff"/></g><g transform="translate(52.63 278.89)" fill="#b079d0"><path d="m0 0 10.951-21.294c1.122-2.183 4.229-2.235 5.415-0.086 5.89 10.668 20.9 35.598 40.841 52.282 1.197 1.002-0.143 2.962-1.44 2.096-16.833-11.245-31.887-27.285-42.506-45.977l-11.819 14.033c-0.73 0.727-1.914-0.137-1.442-1.054" fill="#b079d0"/></g><g transform="translate(377.22 194.95)"><path d="m0 0s-5.491-33.097-4.073-35.031c1.418-1.936 46.172-12.236 48.687-11.282 2.517 0.954 12.172 35.922 12.172 35.922z" fill="#eb7601"/></g><g clip-path="url(#clipPath594)" opacity=".5"><g transform="translate(400.76 163.58)"><path d="m0 0c-1.699 0-23.536 31.376-23.536 31.376l56.786-10.391s-31.55-20.985-33.25-20.985" fill="#eb7601"/></g></g><g transform="translate(400.76 166.45)"><path d="m0 0c-2.157 0-23.536 28.5-23.536 28.5l56.786-10.391s-31.093-18.109-33.25-18.109" fill="#fad921"/></g><g transform="translate(392.57 291.3)"><path d="m0 0-2.931 1.414c-2.079 1.003-2.952 3.501-1.949 5.58l5.096 10.563c1.002 2.079 3.501 2.951 5.58 1.948l2.931-1.414c2.079-1.003 2.952-3.501 1.949-5.58l-5.095-10.563c-1.003-2.078-3.502-2.951-5.581-1.948" fill="#fffdff"/></g><g transform="translate(409.75 283.01)"><path d="m0 0-3.221 1.553c-1.999 0.965-2.838 3.367-1.874 5.366l9.922 20.569c0.965 2 3.367 2.839 5.366 1.874l3.221-1.553c1.999-0.965 2.838-3.367 1.874-5.366l-9.923-20.569c-0.964-1.999-3.366-2.838-5.365-1.874" fill="#fffdff"/></g><g transform="translate(429.01 273.72)"><path d="m0 0-4.93 2.378c-2.277 1.099-3.232 3.835-2.134 6.113l14.287 29.617c1.098 2.277 3.835 3.233 6.112 2.135l4.93-2.379c2.277-1.098 3.233-3.835 2.134-6.112l-14.287-29.618c-1.098-2.277-3.835-3.232-6.112-2.134" fill="#fffdff"/></g><g transform="translate(461.84 332.84)"><path d="m0 0-12.013 0.56 2.419-4.579-19.132-9.908-2.752 10.298c-0.102 0.383-0.377 0.698-0.745 0.85-0.366 0.152-0.783 0.126-1.127-0.073l-14.373-8.275-2.615 6.624c-0.137 0.345-0.417 0.614-0.767 0.737-0.349 0.122-0.737 0.086-1.06-0.099l-12.641-7.281c-0.611-0.353-0.82-1.134-0.468-1.745 0.351-0.612 1.132-0.822 1.745-0.47l11.358 6.543 2.615-6.624c0.137-0.346 0.417-0.615 0.767-0.737 0.352-0.122 0.738-0.088 1.06 0.099l14.212 8.183 2.732-10.226c0.1-0.373 0.364-0.682 0.718-0.838 0.165-0.073 0.341-0.109 0.516-0.109 0.202 0 0.405 0.048 0.588 0.143l20.563 10.649 2.004-3.796 4.572 7.201 0.05 0.026c0.438 0.226 0.683 0.671 0.685 1.132z" fill="#fdd622"/></g><g transform="translate(343.18 112.19)"><path d="m0 0-27.652-9.508c2.963-8.618 13.781-10.641 15.072-14.393 1.434-4.175-6.738-9.847-3.034-20.62l27.652 9.507c-3.704 10.774-13.637 10.22-15.071 14.395-1.291 3.753 5.997 12 3.033 20.619" fill="#fffdff"/></g><g transform="translate(331.36 72.934)"><path d="m0 0c-0.251 3.557 1.055 6.311 2.24 8.811 1.243 2.622 2.528 5.332 1.57 8.121-0.872 2.536-3.538 4.144-6.359 5.846-2.384 1.439-4.989 3.011-6.831 5.24l17.174 5.904c-0.081-2.89-1.17-5.732-2.164-8.332-1.178-3.077-2.29-5.985-1.418-8.521 0.958-2.787 3.639-4.134 6.23-5.437 2.473-1.243 5.195-2.612 7.185-5.571z" fill="#fad921"/></g><g transform="translate(346.98 113.5)" fill="#b079d0"><path d="m0 0-35.254-12.121c-0.97-0.333-2.025 0.183-2.358 1.151l-0.161 0.468c-0.333 0.97 0.182 2.025 1.152 2.358l35.254 12.122c0.969 0.333 2.024-0.183 2.358-1.152l0.16-0.468c0.334-0.969-0.181-2.025-1.151-2.358" fill="#b079d0"/></g><g transform="translate(360.39 74.51)" fill="#b079d0"><path d="m0 0-35.255-12.121c-0.969-0.333-2.024 0.183-2.357 1.151l-0.161 0.469c-0.333 0.969 0.182 2.024 1.151 2.357l35.254 12.122c0.97 0.334 2.025-0.182 2.358-1.152l0.161-0.468c0.333-0.968-0.182-2.025-1.151-2.358" fill="#b079d0"/></g><g transform="translate(179.25 374.06)"><path d="m0 0c-5.606-4.042-11.452-5.888-17.664-5.361l-6.327 20.846 17.664 5.362z" fill="#033e5d"/></g><g transform="translate(151.45 433.87)"><path d="m0 0c-13.882-4.213-21.72-18.882-17.506-32.764 4.213-13.882 18.882-21.72 32.764-17.507 13.882 4.214 21.72 18.883 17.506 32.765-4.213 13.882-18.882 21.72-32.764 17.506" fill="#fdd622"/></g><g transform="translate(167.28 379.16)"><path d="m0 0c-3.07-0.932-6.045-1.436-8.971-1.524-0.692-0.021-1.269 0.522-1.29 1.213-0.021 0.692 0.526 1.272 1.214 1.291 5.426 0.166 11.089 1.89 17.306 5.271 0.613 0.332 1.369 0.106 1.7-0.501 0.33-0.608 0.105-1.369-0.502-1.7-3.273-1.779-6.412-3.126-9.457-4.05" fill="#fdd622"/></g><g transform="translate(168.41 375.45)"><path d="m0 0c-3.069-0.932-6.044-1.436-8.971-1.524-0.691-0.021-1.269 0.522-1.29 1.213-0.021 0.692 0.526 1.271 1.214 1.291 5.427 0.166 11.089 1.89 17.306 5.271 0.613 0.331 1.369 0.106 1.7-0.501 0.331-0.608 0.105-1.369-0.502-1.7-3.273-1.779-6.411-3.126-9.457-4.05" fill="#fdd622"/></g><g transform="translate(169.53 371.74)"><path d="m0 0c-3.069-0.932-6.044-1.436-8.97-1.524-0.692-0.021-1.27 0.522-1.291 1.213-0.021 0.692 0.527 1.27 1.214 1.291 5.427 0.166 11.089 1.89 17.307 5.271 0.612 0.333 1.368 0.106 1.699-0.501 0.331-0.608 0.106-1.369-0.502-1.7-3.272-1.779-6.411-3.126-9.457-4.05" fill="#fdd622"/></g><g transform="translate(164.32 413.36)"><path d="m0 0c-6.672-0.519-13.052-4.897-12.281-8.885 0.603-3.118 1.961-2.92 3.32-3.155 3.314-0.572 12.298 2.572 11.395 5.548-0.979 3.226-8.362 0.212-11.559-1.842-3.017-1.938-3.023-4.435-1.804-6.524 1.23-2.107 4.229-2.157 6.634-1.745 1.784 0.307 9.329 2.326 8.374 4.053-0.396 0.717-3.431 1.252-6.748-0.033-6.621-2.564-6.771-4.525-6.732-5.523 0.086-2.196 2.215-3.849 7.581-1.661 2.312 0.942 2.227-4.459 3.85-8.909" fill="none" stroke="#fffdff" stroke-linecap="round" stroke-miterlimit="10" stroke-width="2"/></g><g clip-path="url(#clipPath670)" opacity=".5"><g transform="translate(153.96 431.61)"><path d="m0 0c-3.196-0.625-3.331-3.187 0.572-3.149 9.313 0.089 20.532-8.006 23.321-16.531 0.987-3.017 3.357-2.274 2.989 0.39-1.689 12.227-13.156 21.975-26.882 19.29" fill="#fdd622"/></g></g><g transform="translate(132.71 332.48)"><path d="m0 0c0-1.814-1.471-3.285-3.285-3.285-1.815 0-3.285 1.471-3.285 3.285s1.47 3.285 3.285 3.285c1.814 0 3.285-1.471 3.285-3.285" fill="#fffdff"/></g><g transform="translate(221.44 66.834)"><path d="m0 0c0-1.814-1.471-3.285-3.285-3.285-1.815 0-3.285 1.471-3.285 3.285s1.47 3.285 3.285 3.285c1.814 0 3.285-1.471 3.285-3.285" fill="#fffdff"/></g><g transform="translate(363.41 403.06)"><path d="m0 0c0-1.814-1.471-3.285-3.285-3.285s-3.285 1.471-3.285 3.285 1.471 3.285 3.285 3.285 3.285-1.471 3.285-3.285" fill="#fffdff"/></g><g transform="translate(441.98 341.98)"><path d="m0 0c0-1.814-1.471-3.285-3.285-3.285-1.815 0-3.285 1.471-3.285 3.285s1.47 3.285 3.285 3.285c1.814 0 3.285-1.471 3.285-3.285" fill="#fffdff"/></g><g transform="translate(64.558 179.19)"><path d="m0 0c0-1.814-1.471-3.285-3.285-3.285-1.815 0-3.285 1.471-3.285 3.285s1.47 3.285 3.285 3.285c1.814 0 3.285-1.471 3.285-3.285" fill="#fffdff"/></g><g transform="translate(380.63 95.417)"><path d="m0 0c0-1.814-1.471-3.285-3.285-3.285-1.815 0-3.285 1.471-3.285 3.285 0 1.813 1.47 3.285 3.285 3.285 1.814 0 3.285-1.472 3.285-3.285" fill="#fffdff"/></g><g transform="translate(419.25 204.88)"><path d="m0 0c0-1.814-1.471-3.285-3.285-3.285s-3.285 1.471-3.285 3.285 1.471 3.285 3.285 3.285 3.285-1.471 3.285-3.285" fill="#fffdff"/></g><g transform="translate(71.128 341.98)"><path d="m0 0c0-1.814-1.471-3.285-3.285-3.285-1.815 0-3.285 1.471-3.285 3.285s1.47 3.285 3.285 3.285c1.814 0 3.285-1.471 3.285-3.285" fill="#fffdff"/></g><g transform="translate(226.36 410.22)"><path d="m0 0c0-1.814-1.471-3.285-3.285-3.285-1.815 0-3.285 1.471-3.285 3.285s1.47 3.285 3.285 3.285c1.814 0 3.285-1.471 3.285-3.285" fill="#fffdff"/></g><g fill="#b079d0"><g transform="translate(393.37 217.06)"><path d="M 0,0 C -0.842,1.307 -0.465,3.049 0.842,3.891 2.148,4.733 3.891,4.356 4.732,3.05 5.574,1.742 5.198,0.001 3.891,-0.842 2.584,-1.684 0.842,-1.307 0,0" fill="#b079d0"/></g><g transform="translate(190.06 384.7)"><path d="M 0,0 C -0.842,1.307 -0.465,3.049 0.841,3.891 2.148,4.733 3.89,4.356 4.732,3.05 5.575,1.743 5.198,0.001 3.891,-0.841 2.584,-1.684 0.842,-1.307 0,0" fill="#b079d0"/></g><g transform="translate(248.08 52.371)"><path d="m0 0c-0.842 1.307-0.465 3.049 0.841 3.891 1.307 0.841 3.049 0.465 3.891-0.842 0.843-1.307 0.466-3.049-0.841-3.891s-3.049-0.466-3.891 0.842" fill="#b079d0"/></g><g transform="translate(149.21 62.681)"><path d="M 0,0 C -0.842,1.308 -0.465,3.049 0.841,3.892 2.148,4.733 3.891,4.356 4.732,3.05 5.575,1.743 5.198,0.001 3.891,-0.841 2.584,-1.684 0.842,-1.307 0,0" fill="#b079d0"/></g><g transform="translate(351.94 383.41)"><path d="M 0,0 C -0.842,1.307 -0.465,3.049 0.842,3.891 2.148,4.733 3.891,4.356 4.732,3.049 5.575,1.743 5.198,0 3.892,-0.841 2.584,-1.684 0.843,-1.307 0,0" fill="#b079d0"/></g><g transform="translate(90.394 323.06)"><path d="m0 0c-0.842 1.307-0.465 3.049 0.841 3.891 1.307 0.842 3.049 0.465 3.891-0.841 0.842-1.307 0.466-3.049-0.841-3.891s-3.049-0.466-3.891 0.841" fill="#b079d0"/></g><g transform="translate(77.971 202.76)"><path d="m0 0c0.065 1.554 1.377 2.76 2.931 2.695 1.553-0.065 2.759-1.378 2.694-2.93-0.065-1.554-1.377-2.76-2.931-2.695-1.553 0.065-2.759 1.377-2.694 2.93" fill="#b079d0"/></g><g transform="translate(435.93 251.37)"><path d="m0 0c-0.843 1.307-0.466 3.049 0.841 3.891s3.049 0.465 3.891-0.841c0.842-1.307 0.465-3.049-0.841-3.891-1.307-0.843-3.049-0.466-3.891 0.841" fill="#b079d0"/></g><g transform="translate(346.29 126.48)"><path d="m0 0c-0.843 1.307-0.466 3.049 0.841 3.891s3.049 0.465 3.891-0.841c0.842-1.308 0.465-3.049-0.841-3.892-1.307-0.842-3.049-0.465-3.891 0.842" fill="#b079d0"/></g></g><g transform="translate(220.1 86.469)"><path d="m0 0c0.97 0.739 2.356 0.554 3.096-0.417 0.74-0.97 0.553-2.355-0.416-3.096-0.971-0.74-2.357-0.553-3.097 0.416-0.739 0.971-0.553 2.357 0.417 3.097" fill="#fdd622"/></g><g transform="translate(411.34 258.73)"><path d="m0 0c0.971 0.74 2.356 0.554 3.097-0.416 0.74-0.97 0.553-2.356-0.417-3.096s-2.356-0.554-3.096 0.416-0.554 2.356 0.416 3.096" fill="#fdd622"/></g><g transform="translate(93.299 219.69)"><path d="m0 0c0.97 0.739 2.356 0.553 3.096-0.417s0.554-2.355-0.416-3.096c-0.97-0.74-2.356-0.553-3.096 0.416-0.74 0.97-0.554 2.357 0.416 3.097" fill="#fdd622"/></g><g transform="translate(76.053 318.82)"><path d="m0 0c0.97 0.74 2.356 0.554 3.096-0.417 0.74-0.969 0.554-2.355-0.416-3.096-0.97-0.739-2.356-0.553-3.096 0.417s-0.554 2.356 0.416 3.096" fill="#fdd622"/></g><g transform="translate(372.72 153.37)"><path d="m0 0c0.97 0.74 2.356 0.554 3.097-0.416 0.739-0.97 0.552-2.356-0.417-3.097-0.97-0.739-2.356-0.552-3.096 0.417-0.74 0.97-0.554 2.356 0.416 3.096" fill="#fdd622"/></g><g transform="translate(273.2 384.22)"><path d="m0 0c0.97 0.74 2.355 0.553 3.096-0.417 0.74-0.969 0.553-2.355-0.416-3.096-0.971-0.739-2.357-0.553-3.097 0.417s-0.554 2.356 0.417 3.096" fill="#fdd622"/></g><g transform="translate(211.08 400.77)"><path d="m0 0c0.97 0.74 2.356 0.554 3.096-0.416s0.554-2.356-0.416-3.096-2.356-0.554-3.097 0.416c-0.739 0.97-0.553 2.356 0.417 3.096" fill="#fdd622"/></g><g transform="translate(267.62 100.72)"><path d="m0 0c0.97 0.74 2.356 0.554 3.096-0.416s0.553-2.356-0.416-3.097c-0.97-0.739-2.357-0.552-3.096 0.417-0.74 0.97-0.554 2.356 0.416 3.096" fill="#fdd622"/></g><g transform="translate(160.74 126.29)"><path d="m0 0c0.97 0.739 2.356 0.554 3.096-0.417 0.74-0.97 0.553-2.355-0.416-3.096-0.971-0.74-2.357-0.553-3.097 0.416-0.739 0.971-0.553 2.357 0.417 3.097" fill="#fdd622"/></g><g transform="translate(146.64 137.26)"><path d="m0 0c0-1.814-1.471-3.285-3.285-3.285-1.815 0-3.285 1.471-3.285 3.285s1.47 3.285 3.285 3.285c1.814 0 3.285-1.471 3.285-3.285" fill="#fffdff"/></g><g transform="translate(98.246 135.47)"><path d="m0 0c0 0.506-0.177 0.946-0.53 1.322-0.354 0.378-0.77 0.566-1.247 0.566-0.488 0-0.912-0.198-1.275-0.592-0.363-0.396-0.544-0.836-0.544-1.323s0.177-0.91 0.531-1.268c0.353-0.358 0.773-0.537 1.26-0.537 0.514 0 0.944 0.177 1.288 0.531 0.345 0.353 0.517 0.787 0.517 1.301m2.962 0.565c0-1.332-0.471-2.479-1.412-3.445-0.942-0.964-2.078-1.446-3.41-1.446-1.231 0-2.273 0.345-3.128 1.034-0.918 0.734-1.377 1.708-1.377 2.92 0 1.268 0.477 2.43 1.433 3.486 0.955 1.056 2.057 1.584 3.307 1.584 1.129 0 2.167-0.398 3.113-1.198 0.983-0.846 1.474-1.823 1.474-2.935m-5.028 12.51c0-0.175-0.065-0.418-0.193-0.729-0.423-1.066-1.08-2.367-1.971-3.9-1.304-2.232-2.039-3.505-2.204-3.816-0.817-1.774-2.104-4.395-3.858-7.867-0.413-0.726-0.864-1.089-1.35-1.089-0.377 0-0.716 0.145-1.02 0.434-0.302 0.289-0.454 0.622-0.454 0.999 0 0.624 1.832 4.404 5.497 11.339 0.239 0.442 0.914 1.727 2.025 3.858 0.175 0.34 0.464 0.841 0.868 1.502 0.349 0.45 0.758 0.674 1.226 0.674 0.396 0 0.733-0.135 1.013-0.406 0.28-0.27 0.421-0.603 0.421-0.999m-10.155-3.32c0 0.487-0.181 0.899-0.544 1.24-0.363 0.339-0.787 0.51-1.274 0.51-0.643 0-1.126-0.285-1.447-0.855-0.267-0.468-0.4-1.046-0.4-1.736 0-0.394 0.193-0.703 0.579-0.923 0.312-0.183 0.68-0.275 1.102-0.275 0.552 0 1.02 0.204 1.406 0.613 0.385 0.408 0.578 0.884 0.578 1.426m2.866-0.014c0-1.332-0.455-2.478-1.364-3.437-0.909-0.96-2.03-1.44-3.362-1.44-1.221 0-2.296 0.386-3.224 1.157-0.973 0.818-1.46 1.819-1.46 3.003 0 1.039 0.441 2.187 1.323 3.445 0.937 1.342 1.901 2.011 2.893 2.011 1.469 0 2.703-0.429 3.699-1.288 0.996-0.858 1.495-2.008 1.495-3.451" fill="#fffdff"/></g><g transform="translate(391.14 335.82)"><path d="m0 0c0 0.524-0.666 1.044-1.995 1.559l-0.267-2.261h0.084c1.452 0 2.178 0.234 2.178 0.702m-4.467 7.218c-1.179-0.29-1.942-0.603-2.288-0.941 0.617-0.356 1.343-0.651 2.176-0.884 0.028 0.449 0.066 1.058 0.112 1.825m7.444 0.576c0-0.402-0.157-0.763-0.47-1.081-0.315-0.318-0.672-0.478-1.075-0.478-0.113 0-0.309 0.108-0.59 0.324-0.403 0.308-0.706 0.526-0.912 0.652-0.206 0.127-0.656 0.199-1.348 0.218-0.112-1.227-0.203-2.196-0.269-2.907 3.044-1.021 4.565-2.462 4.565-4.325 0-2.303-1.839-3.586-5.519-3.848-0.122-1.133-0.215-1.784-0.281-1.953-0.243-0.739-0.725-1.109-1.446-1.109-0.936 0-1.404 0.576-1.404 1.728 0 0.253 0.061 0.693 0.182 1.32-1.18 0.046-1.919 0.084-2.219 0.112-0.917 0.103-1.638 0.258-2.162 0.464-0.721 0.28-1.082 0.744-1.082 1.39 0 0.393 0.146 0.73 0.436 1.011s0.632 0.421 1.025 0.421c0.449 0 1.104-0.084 1.966-0.253 0.861-0.168 1.671-0.252 2.43-0.252 0.168 1.376 0.285 2.434 0.35 3.174-3.371 0.889-5.055 2.134-5.055 3.735 0 1.179 0.669 2.144 2.008 2.893 0.984 0.543 2.191 0.936 3.623 1.179 0.038 0.768 0.118 1.288 0.239 1.559 0.224 0.459 0.665 0.689 1.32 0.689 0.384 0 0.724-0.136 1.019-0.408 0.295-0.271 0.442-0.59 0.442-0.955 0-0.224-0.01-0.482-0.028-0.772 0.899-0.093 1.764-0.332 2.597-0.716 1.105-0.505 1.658-1.11 1.658-1.812" fill="#fffdff"/></g><g transform="translate(149.74 353.48)"><path d="m0 0c-0.464 0.364-0.775 0.546-0.932 0.546-0.478 0-0.875-0.25-1.189-0.75-0.278-0.436-0.418-0.903-0.418-1.403 0-0.35 0.226-0.525 0.675-0.525 0.436 0 0.843 0.254 1.221 0.761 0.308 0.413 0.522 0.871 0.643 1.371m5.699-0.396c0-1.272-0.254-2.407-0.761-3.407-0.649-1.228-1.546-1.843-2.688-1.843-0.622 0-1.165 0.183-1.628 0.547-0.465 0.364-0.783 0.853-0.954 1.468-0.479-0.429-1.014-0.643-1.606-0.643-0.736 0-1.372 0.286-1.907 0.857-0.536 0.571-0.803 1.225-0.803 1.96 0 0.985 0.399 1.919 1.199 2.801 0.8 0.883 1.693 1.323 2.678 1.323 0.521 0 1.021-0.157 1.5-0.471 0.535-0.35 0.803-0.775 0.803-1.275 0-0.2-0.061-0.379-0.182-0.535 0.414-0.193 0.621-0.575 0.621-1.147 0-0.235-0.046-0.585-0.139-1.05-0.093-0.464-0.14-0.81-0.14-1.039 0-0.571 0.25-0.856 0.75-0.856 0.672 0 1.007 0.975 1.007 2.924 0 3.092-1.424 4.638-4.274 4.638-1.221 0-2.465-0.575-3.733-1.725-1.267-1.149-1.901-2.328-1.901-3.534 0-3.364 1.471-5.045 4.413-5.045 0.157 0 0.384 0.022 0.68 0.069 0.297 0.046 0.527 0.069 0.691 0.069 0.3 0 0.561-0.096 0.782-0.289 0.222-0.193 0.332-0.436 0.332-0.728 0-0.486-0.257-0.853-0.771-1.103-0.307-0.143-0.939-0.215-1.896-0.215-1.871 0-3.41 0.632-4.617 1.896-1.192 1.236-1.788 2.792-1.788 4.671 0 2.163 0.789 4.047 2.367 5.65 1.578 1.604 3.445 2.406 5.602 2.406 1.828 0 3.346-0.606 4.553-1.817 1.206-1.21 1.81-2.729 1.81-4.557" fill="#fffdff"/></g></g></g></svg>
