<?xml version="1.0" encoding="UTF-8"?>
<!-- Created with Inkscape (http://www.inkscape.org/) -->
<svg width="666.67" height="666.67" version="1.1" viewBox="0 0 666.67 666.67" xml:space="preserve" xmlns="http://www.w3.org/2000/svg" xmlns:cc="http://creativecommons.org/ns#" xmlns:dc="http://purl.org/dc/elements/1.1/" xmlns:rdf="http://www.w3.org/1999/02/22-rdf-syntax-ns#"><metadata><rdf:RDF><cc:Work rdf:about=""><dc:format>image/svg+xml</dc:format><dc:type rdf:resource="http://purl.org/dc/dcmitype/StillImage"/><dc:title/></cc:Work></rdf:RDF></metadata><defs><clipPath id="clipPath20"><path d="m0 500h500v-500h-500z"/></clipPath></defs><g transform="matrix(1.3333 0 0 -1.3333 0 666.67)"><g clip-path="url(#clipPath20)"><g fill="#407bfe"><g transform="translate(281.5 375.18)"><path d="m0 0c0 21.781 17.72 39.501 39.501 39.501s39.501-17.72 39.501-39.501-17.72-39.501-39.501-39.501-39.501 17.72-39.501 39.501m105.82-5.503v12.586l-8.447 1.979c-0.666 4.706-1.892 9.23-3.609 13.506l6.318 5.931-6.293 10.9-8.306-2.51c-2.888 3.674-6.207 6.993-9.881 9.882l2.51 8.305-10.9 6.293-5.931-6.319c-4.275 1.718-8.8 2.944-13.506 3.61l-1.979 8.447h-12.586l-1.979-8.447c-4.706-0.666-9.231-1.892-13.506-3.61l-5.931 6.319-10.899-6.293 2.509-8.305c-3.673-2.889-6.993-6.208-9.881-9.882l-8.306 2.51-6.293-10.9 6.318-5.931c-1.717-4.276-2.942-8.8-3.609-13.506l-8.447-1.979v-12.586l8.447-1.979c0.667-4.706 1.892-9.231 3.609-13.506l-6.318-5.931 6.293-10.9 8.306 2.51c2.888-3.674 6.208-6.993 9.881-9.882l-2.509-8.305 10.899-6.294 5.931 6.319c4.275-1.717 8.8-2.943 13.506-3.61l1.979-8.447h12.586l1.979 8.447c4.706 0.667 9.231 1.893 13.506 3.61l5.931-6.319 10.9 6.294-2.51 8.305c3.673 2.889 6.993 6.208 9.881 9.882l8.306-2.51 6.293 10.9-6.318 5.931c1.717 4.275 2.943 8.8 3.609 13.506z" fill="#407bfe"/></g><g transform="translate(299.04 157.13)"><path d="m0 0c0 21.781 17.721 39.501 39.501 39.501 21.781 0 39.502-17.72 39.502-39.501s-17.721-39.501-39.502-39.501c-21.78 0-39.501 17.72-39.501 39.501m105.82-5.503v12.586l-8.447 1.98c-0.667 4.705-1.893 9.23-3.61 13.505l6.319 5.931-6.294 10.9-8.306-2.51c-2.887 3.674-6.207 6.993-9.881 9.882l2.51 8.305-10.9 6.293-5.931-6.318c-4.275 1.717-8.8 2.942-13.506 3.609l-1.978 8.447h-12.587l-1.979-8.447c-4.706-0.667-9.231-1.891-13.505-3.609l-5.931 6.318-10.9-6.293 2.509-8.305c-3.673-2.889-6.993-6.208-9.881-9.882l-8.306 2.51-6.293-10.9 6.319-5.931c-1.718-4.275-2.943-8.8-3.61-13.505l-8.447-1.98v-12.586l8.447-1.979c0.667-4.706 1.892-9.231 3.61-13.506l-6.319-5.931 6.293-10.9 8.306 2.51c2.888-3.673 6.208-6.993 9.881-9.881l-2.509-8.306 10.9-6.293 5.931 6.318c4.274-1.716 8.799-2.942 13.505-3.609l1.979-8.447h12.587l1.978 8.447c4.706 0.667 9.231 1.893 13.506 3.609l5.931-6.318 10.9 6.293-2.51 8.306c3.674 2.888 6.994 6.208 9.881 9.881l8.306-2.51 6.294 10.9-6.319 5.931c1.717 4.275 2.943 8.8 3.61 13.506z" fill="#407bfe"/></g><g transform="translate(113.93 196.7)"><path d="m0 0c0 30.562 24.864 55.426 55.426 55.426 30.563 0 55.427-24.864 55.427-55.426s-24.864-55.427-55.427-55.427c-30.562 0-55.426 24.865-55.426 55.427m148.48-7.722v17.66l-11.852 2.778c-0.936 6.602-2.655 12.952-5.066 18.951l8.867 8.321-8.83 15.295-11.655-3.522c-4.052 5.155-8.71 9.813-13.865 13.865l3.522 11.655-15.295 8.83-8.322-8.866c-5.998 2.41-12.348 4.13-18.951 5.065l-2.776 11.853h-17.661l-2.777-11.853c-6.602-0.935-12.952-2.655-18.951-5.065l-8.322 8.866-15.294-8.83 3.522-11.655c-5.155-4.052-9.813-8.71-13.866-13.865l-11.654 3.522-8.83-15.295 8.867-8.321c-2.411-5.999-4.13-12.349-5.066-18.951l-11.853-2.778v-17.66l11.853-2.776c0.936-6.603 2.655-12.952 5.066-18.952l-8.867-8.321 8.83-15.294 11.654 3.521c4.053-5.155 8.711-9.812 13.866-13.865l-3.522-11.654 15.294-8.831 8.322 8.867c5.999-2.41 12.349-4.13 18.951-5.066l2.777-11.852h17.661l2.776 11.852c6.603 0.936 12.953 2.656 18.951 5.066l8.322-8.867 15.295 8.831-3.522 11.654c5.155 4.053 9.813 8.71 13.865 13.865l11.655-3.521 8.83 15.294-8.867 8.322c2.411 5.999 4.13 12.348 5.066 18.951z" fill="#407bfe"/></g><g transform="translate(288.6 293.08)"><path d="m0 0c3.086 7.68 5.287 15.81 6.485 24.263l15.175 3.554v22.611l-15.175 3.555c-1.198 8.454-3.399 16.582-6.485 24.263l11.352 10.654-11.305 19.581-14.921-4.509c-5.188 6.6-11.151 12.563-17.752 17.752l4.51 14.921-19.582 11.305-10.654-11.351c-7.681 3.085-15.81 5.287-24.263 6.484l-3.555 15.176h-22.611l-3.554-15.176c-8.454-1.197-16.583-3.399-24.264-6.484l-10.653 11.351-19.582-11.305 4.509-14.921c-6.6-5.189-12.563-11.152-17.752-17.752l-14.92 4.509-11.305-19.581 11.351-10.654c-3.086-7.681-5.287-15.809-6.485-24.263l-15.175-3.555v-22.61l15.175-3.555c1.198-8.453 3.399-16.583 6.485-24.263l-11.351-10.654 11.305-19.582 14.92 4.509c5.189-6.6 11.152-12.563 17.752-17.751l-4.509-14.921 19.582-11.306 10.653 11.352c7.681-3.085 15.81-5.287 24.264-6.484l3.554-15.176h22.611l3.555 15.176c8.453 1.197 16.582 3.399 24.263 6.484l10.654-11.352 19.582 11.306-4.51 14.921c6.601 5.188 12.564 11.151 17.752 17.751l14.921-4.509 11.305 19.582z" fill="#407bfe"/></g><g transform="translate(421.06 255.35)"><path d="m0 0v12.065l-8.105 1.898c-0.639 4.508-1.817 8.84-3.462 12.936l6.067 5.694-6.032 10.448-7.979-2.411c-2.766 3.518-5.942 6.695-9.46 9.461l2.41 7.978-10.448 6.032-5.693-6.067c-4.097 1.645-8.428 2.823-12.936 3.462l-1.899 8.106h-12.065l-1.898-8.106c-4.508-0.639-8.84-1.816-12.936-3.462l-5.694 6.067-10.448-6.032 2.411-7.978c-3.518-2.766-6.694-5.943-9.461-9.461l-7.977 2.411-6.033-10.448 6.067-5.694c-1.645-4.096-2.823-8.428-3.462-12.936l-8.106-1.898v-12.065l8.106-1.899c0.639-4.507 1.817-8.839 3.462-12.935l-6.067-5.694 6.033-10.449 7.977 2.412c2.767-3.518 5.943-6.695 9.461-9.461l-2.411-7.978 10.448-6.032 5.694 6.066c4.096-1.645 8.428-2.823 12.936-3.462l1.898-8.105h12.065l1.899 8.105c4.508 0.639 8.839 1.817 12.936 3.462l5.693-6.066 10.448 6.032-2.41 7.978c3.518 2.766 6.694 5.943 9.46 9.461l7.979-2.412 6.032 10.449-6.067 5.694c1.645 4.096 2.823 8.428 3.462 12.936z" fill="#407bfe"/></g></g><g transform="translate(357.49 309.66)" fill="#01001f"><path d="m0 0c-26.662 0-48.277-21.614-48.277-48.277s21.615-48.278 48.277-48.278c26.663 0 48.277 21.615 48.277 48.278s-21.614 48.277-48.277 48.277" fill="#01001f"/></g><g transform="translate(100.65 332.2)" fill="#01001f"><path d="m0 0c0-49.969 40.508-90.477 90.477-90.477s90.477 40.508 90.477 90.477-40.508 90.477-90.477 90.477-90.477-40.508-90.477-90.477" fill="#01001f"/></g><g transform="translate(125.46 330.78)"><path d="m0 0c0-36.266 29.399-65.665 65.665-65.665 36.265 0 65.664 29.399 65.664 65.665s-29.399 65.665-65.664 65.665c-36.266 0-65.665-29.399-65.665-65.665" fill="#fff"/></g><g transform="translate(231.14 334.27)"><path d="m0 0h-32.82c-0.834 1.717-2.257 3.092-4.013 3.854v35.853c0 1.749-1.432 3.18-3.181 3.18-1.75 0-3.181-1.431-3.181-3.18v-35.853c-2.836-1.23-4.822-4.053-4.822-7.342 0-4.42 3.583-8.003 8.003-8.003 3.406 0 6.307 2.131 7.462 5.13h32.552c1.75 0 3.181 1.431 3.181 3.18 0 1.75-1.431 3.181-3.181 3.181" fill="#153c77"/></g><g transform="translate(223.56 279.9)" fill="#407bfe"><path d="m0 0-1.614 2.797c-0.732 1.267-2.353 1.701-3.618 0.97-1.267-0.732-1.701-2.352-0.97-3.618l1.62-2.806c-7.601-3.97-16.143-6.374-25.201-6.767v3.255c0 1.462-1.186 2.648-2.649 2.648-1.462 0-2.648-1.186-2.648-2.648v-3.255c-9.058 0.393-17.599 2.797-25.201 6.767l1.62 2.806c0.731 1.266 0.297 2.886-0.969 3.618-1.267 0.731-2.887 0.297-3.618-0.97l-1.615-2.797c-7.405 4.737-13.708 11.04-18.445 18.445l2.797 1.615c1.267 0.731 1.701 2.351 0.97 3.617-0.731 1.268-2.352 1.7-3.618 0.97l-2.806-1.62c-3.971 7.601-6.374 16.142-6.767 25.201h3.254c1.463 0 2.649 1.186 2.649 2.648 0 1.463-1.186 2.649-2.649 2.649h-3.254c0.393 9.058 2.796 17.6 6.767 25.201l2.806-1.62c0.417-0.241 0.872-0.356 1.322-0.356 0.915 0 1.805 0.476 2.296 1.325 0.731 1.267 0.297 2.886-0.97 3.618l-2.797 1.615c4.737 7.404 11.04 13.708 18.445 18.445l1.615-2.797c0.491-0.85 1.381-1.325 2.296-1.325 0.45 0 0.905 0.114 1.322 0.355 1.266 0.731 1.7 2.351 0.969 3.618l-1.62 2.806c7.601 3.97 16.143 6.374 25.201 6.767v-3.255c0-1.463 1.186-2.648 2.648-2.648 1.463 0 2.649 1.185 2.649 2.648v3.255c9.058-0.393 17.6-2.797 25.201-6.767l-1.62-2.806c-0.731-1.267-0.297-2.887 0.97-3.618 0.417-0.241 0.872-0.355 1.321-0.355 0.916 0 1.806 0.475 2.297 1.325l1.614 2.796c7.405-4.736 13.708-11.04 18.445-18.444l-2.797-1.615c-1.267-0.732-1.701-2.351-0.969-3.618 0.49-0.849 1.381-1.325 2.296-1.325 0.449 0 0.904 0.115 1.321 0.356l2.807 1.62c3.97-7.601 6.374-16.143 6.766-25.201h-3.254c-1.463 0-2.648-1.186-2.648-2.649 0-1.462 1.185-2.648 2.648-2.648h3.254c-0.392-9.059-2.796-17.6-6.766-25.201l-2.807 1.62c-1.267 0.73-2.886 0.298-3.617-0.97-0.732-1.266-0.298-2.886 0.969-3.617l2.797-1.615c-4.737-7.404-11.04-13.708-18.445-18.445m-32.432 121.84c-39.128 0-70.961-31.834-70.961-70.962s31.833-70.961 70.961-70.961c39.129 0 70.962 31.833 70.962 70.961s-31.833 70.962-70.962 70.962" fill="#407bfe"/></g><g transform="translate(356.73 296.42)"><path d="m0 0c-19.351 0-35.038-15.687-35.038-35.038s15.687-35.038 35.038-35.038 35.038 15.687 35.038 35.038-15.687 35.038-35.038 35.038" fill="#fff"/></g><g transform="translate(379.78 263.08)" fill="#01001f"><path d="m0 0h-19.133c-0.656 1.513-2.16 2.573-3.915 2.573-2.358 0-4.27-1.912-4.27-4.27 0-1.817 1.138-3.358 2.737-3.975v-17.376c0-0.933 0.764-1.697 1.697-1.697 0.934 0 1.697 0.764 1.697 1.697v17.525c0.914 0.445 1.649 1.194 2.054 2.129h19.133c0.934 0 1.697 0.764 1.697 1.697s-0.763 1.697-1.697 1.697" fill="#01001f"/></g><g transform="translate(374.03 234.23)" fill="#407bfe"><path d="m0 0-0.861 1.493c-0.389 0.675-1.252 0.908-1.931 0.518-0.676-0.391-0.907-1.255-0.517-1.931l0.865-1.497c-4.056-2.119-8.614-3.401-13.448-3.611v1.736c0 0.781-0.632 1.414-1.413 1.414-0.78 0-1.413-0.633-1.413-1.414v-1.736c-4.834 0.21-9.391 1.492-13.447 3.611l0.864 1.497c0.391 0.676 0.159 1.54-0.516 1.931-0.679 0.392-1.541 0.158-1.931-0.518l-0.861-1.493c-3.952 2.527-7.315 5.892-9.843 9.843l1.492 0.861c0.677 0.391 0.908 1.255 0.518 1.93-0.39 0.676-1.252 0.909-1.93 0.517l-1.497-0.864c-2.119 4.056-3.402 8.613-3.611 13.447h1.736c0.78 0 1.413 0.633 1.413 1.413 0 0.781-0.633 1.414-1.413 1.414h-1.736c0.209 4.833 1.492 9.391 3.611 13.447l1.497-0.864c0.222-0.129 0.465-0.19 0.704-0.19 0.489 0 0.964 0.253 1.226 0.707 0.39 0.675 0.159 1.54-0.518 1.93l-1.492 0.862c2.528 3.951 5.891 7.314 9.843 9.842l0.861-1.493c0.262-0.453 0.736-0.707 1.226-0.707 0.239 0 0.482 0.061 0.705 0.19 0.675 0.39 0.907 1.255 0.516 1.93l-0.864 1.497c4.057 2.119 8.613 3.402 13.447 3.611v-1.736c0-0.781 0.633-1.414 1.413-1.414 0.781 0 1.413 0.633 1.413 1.414v1.736c4.834-0.209 9.392-1.492 13.448-3.611l-0.865-1.497c-0.39-0.675-0.159-1.54 0.517-1.93 0.223-0.129 0.466-0.19 0.705-0.19 0.489 0 0.964 0.254 1.226 0.707l0.861 1.493c3.951-2.527 7.314-5.891 9.843-9.842l-1.493-0.862c-0.676-0.389-0.908-1.254-0.518-1.93 0.262-0.454 0.736-0.707 1.226-0.707 0.239 0 0.482 0.061 0.705 0.19l1.497 0.864c2.119-4.056 3.401-8.613 3.611-13.447h-1.737c-0.78 0-1.413-0.633-1.413-1.414 0-0.78 0.633-1.413 1.413-1.413h1.737c-0.21-4.834-1.492-9.391-3.611-13.447l-1.497 0.864c-0.679 0.393-1.541 0.16-1.931-0.517-0.39-0.675-0.158-1.539 0.518-1.93l1.493-0.861c-2.529-3.951-5.892-7.316-9.843-9.843m-17.305 65.011c-20.878 0-37.864-16.986-37.864-37.864 0-20.877 16.986-37.864 37.864-37.864s37.864 16.987 37.864 37.864c0 20.878-16.986 37.864-37.864 37.864" fill="#407bfe"/></g><g transform="translate(388.29 409.16)"><path d="m0 0 13.763-8.447-23.415-38.149-42.256 32.36-70.945-139.92-84.89 46.075-121.43-180.89 22.848-15.337 107.46 160.09 87.75-47.627 68.763 135.62 40.183-30.772 39.376 64.151 13.763-8.448 1.607 59.786z" fill="#fedd02"/></g><g transform="translate(298.32 183.28)"><path d="m0 0c-10.116 12.545-24.108 17.401-36.233 17.401s-26.117-4.856-36.234-17.401-13.556-38.241 0-52.202 12.949-25.09 12.949-28.327c0-3.238 3.643-3.643 3.643-3.643h39.284s3.642 0.405 3.642 3.643c0 3.237-0.608 14.366 12.949 28.327s10.117 39.657 0 52.202" fill="#fedd02"/></g><g fill="#01001f"><g transform="translate(262.09 99.107)"><path d="m0 0h-19.642v-28.934s0.203-4.856 4.856-4.856h29.572c4.653 0 4.857 4.856 4.857 4.856v28.934z" fill="#01001f"/></g><g transform="translate(281.31 89.193)"><path d="m0 0h-38.443c-1.67 0-3.036 1.366-3.036 3.035s1.366 3.035 3.036 3.035h38.443c1.67 0 3.035-1.366 3.035-3.035s-1.365-3.035-3.035-3.035" fill="#01001f"/></g><g transform="translate(281.31 79.279)"><path d="m0 0h-38.443c-1.67 0-3.036 1.365-3.036 3.035 0 1.669 1.366 3.034 3.036 3.034h38.443c1.67 0 3.035-1.365 3.035-3.034 0-1.67-1.365-3.035-3.035-3.035" fill="#01001f"/></g><g transform="translate(281.31 69.364)"><path d="m0 0h-38.443c-1.67 0-3.036 1.366-3.036 3.035s1.366 3.035 3.036 3.035h38.443c1.67 0 3.035-1.366 3.035-3.035s-1.365-3.035-3.035-3.035" fill="#01001f"/></g><g transform="translate(262.09 65.317)"><path d="m0 0h-11.751s1.447-4.653 11.751-4.653 11.751 4.653 11.751 4.653z" fill="#01001f"/></g></g><g transform="translate(246.49 154.01)"><path d="m0 0c-1.434 0-2.389-0.782-2.937-1.437-0.762-0.913-1.217-2.171-1.217-3.367 0-2.568 1.883-4.041 5.165-4.041h4.333c-0.413 3.111-1.672 8.845-5.344 8.845m9.438-54.906h-3.903v42.158h-4.524c-6.264 0-9.069 3.99-9.069 7.944 0 2.115 0.775 4.254 2.127 5.87 1.529 1.83 3.636 2.836 5.931 2.836 6.313 0 8.732-7.308 9.306-12.747h6.289v-3.903h-6.158z" fill="#fff"/></g><g transform="translate(272.35 145.17)"><path d="m0 0h4.32c3.284 0 5.166 1.473 5.166 4.042 0 2.318-1.67 4.803-4.154 4.803-3.619 0-4.901-5.705-5.332-8.845m-0.203-46.062h-3.902v42.159h-6.159v3.903h6.294c0.582 5.478 3.006 12.747 9.302 12.747 2.295 0 4.401-1.007 5.931-2.836 1.351-1.616 2.127-3.755 2.127-5.869 0-3.955-2.805-7.945-9.07-7.945h-4.524z" fill="#fff"/></g><g transform="translate(269.81 304.68)"><path d="m0 0s-13.17-2.094-13.247-14.657c-0.078-12.562-11.769-34.575 19.831-34.575 31.601 0 20.533 26.039 18.983 31.837-1.548 5.799-2.015 20.616-25.567 17.395" fill="#fd695b"/></g><g transform="translate(267.19 220.36)"><path d="m0 0v35.841c0 2.265-1.836 4.101-4.101 4.101-2.263 0-4.1-1.836-4.1-4.101v-30.5l-9.448-4.177 3.943-7.224z" fill="#fff"/></g><g transform="translate(289.63 256.57)" fill="#407bfe"><path d="m0 0c0 2.074-1.681 3.755-3.755 3.755h-22.63c-0.501 0-0.906-0.405-0.906-0.906v-13.906c-1.359-0.725-2.719-2.085-2.719-4.622 0-2.628 1.383-3.913 2.719-4.548v-29.299h27.291z" fill="#407bfe"/></g><g transform="translate(249.54 221.53)"><path d="m0 0-22.549-9.969c-2.073-0.916-3.008-3.338-2.093-5.408 0.677-1.533 2.179-2.444 3.753-2.444 0.554 0 1.117 0.113 1.655 0.351l23.177 10.246z" fill="#f39e8c"/></g><g transform="translate(249.8 211.56)"><path d="m0 0c-2.072-0.916-3.008-3.338-2.093-5.408 0.677-1.533 2.179-2.445 3.753-2.445 0.554 0 1.116 0.114 1.655 0.352l20.444 9.038-3.644 7.356z" fill="#feb7a6"/></g><g transform="translate(290 256.21)"><path d="m0 0c0 2.265-1.836 4.101-4.101 4.101-2.263 0-4.1-1.836-4.1-4.101v-30.5l-11.882-5.253 3.644-7.356 16.439 7.268z" fill="#fff"/></g><g transform="translate(274.66 253.63)"><path d="m0 0c-2.098 0-3.798 1.701-3.798 3.798v11.972h7.596v-11.972c0-2.097-1.7-3.798-3.798-3.798" fill="#f39e8c"/></g><g transform="translate(267.26 298.38)"><path d="m0 0s-7.15-3.552-7.15-15.732 5.483-18.231 13.803-18.231c12.918 0 15.716 7.932 15.716 7.932s3.028 0.15 3.028 4.209c-5.097 0-22.013 10.489-25.397 21.822" fill="#feb7a6"/></g><g transform="translate(190.74 149.12)"><path d="m0 0s-12.369-0.853-12.369-9.694h21.614l0.182 8.673z" fill="#f34940"/></g><g transform="translate(207.23 149.12)"><path d="m0 0s-12.369-0.853-12.369-9.694h21.614l0.182 8.673z" fill="#fd695b"/></g><g transform="translate(249.8 211.56)"><path d="m0 0h-8.626l0.997-5.44h15.607z" fill="#feb7a6"/></g><g transform="translate(267.19 220.19)"><path d="m0 0 4.41-8.754 4.38 1.791-4.394 8.906z" fill="#bdd9ef"/></g><g transform="translate(247.36 221.55)"><path d="m0 0 4.41-8.754 4.38 1.79-4.395 8.906z" fill="#bdd9ef"/></g><g transform="translate(266.61 279.83)"><path d="m0 0c0-0.815-0.454-1.477-1.015-1.477-0.559 0-1.013 0.662-1.013 1.477s0.454 1.477 1.013 1.477c0.561 0 1.015-0.662 1.015-1.477" fill="#29235c"/></g><g transform="translate(278.24 279.83)"><path d="m0 0c0-0.815-0.454-1.477-1.014-1.477s-1.014 0.662-1.014 1.477 0.454 1.477 1.014 1.477 1.014-0.662 1.014-1.477" fill="#29235c"/></g><g transform="translate(265.15 277.04)"><path d="m0 0c0-0.721-0.831-1.306-1.855-1.306-1.026 0-1.857 0.585-1.857 1.306s0.831 1.306 1.857 1.306c1.024 0 1.855-0.585 1.855-1.306" fill="#fd695b"/></g><g transform="translate(281.48 277.04)"><path d="m0 0c0-0.721-0.831-1.306-1.856-1.306s-1.856 0.585-1.856 1.306 0.831 1.306 1.856 1.306 1.856-0.585 1.856-1.306" fill="#fd695b"/></g><g transform="translate(271.31 272.18)"><path d="m0 0c-2.896 0-4.048 1.31-4.096 1.365-0.104 0.123-0.091 0.309 0.033 0.413 0.123 0.105 0.305 0.091 0.412-0.03 0.01-0.012 1.047-1.163 3.651-1.163 2.615 0 3.764 1.161 3.775 1.173 0.111 0.115 0.297 0.121 0.413 0.01 0.118-0.112 0.124-0.296 0.012-0.414-0.053-0.055-1.313-1.354-4.2-1.354" fill="#fd695b"/></g><g transform="translate(267.89 282.82)"><path d="m0 0c-0.062 0-0.123 0.02-0.177 0.06-2.165 1.639-4.209 0.022-4.229 5e-3 -0.123-0.1-0.309-0.083-0.411 0.044-0.103 0.125-0.083 0.31 0.043 0.412 0.024 0.019 2.421 1.919 4.952 5e-3 0.128-0.097 0.153-0.281 0.055-0.41-0.056-0.076-0.145-0.116-0.233-0.116" fill="#f34940"/></g><g transform="translate(279.52 282.82)"><path d="m0 0c-0.062 0-0.124 0.02-0.178 0.06-2.164 1.639-4.208 0.022-4.228 5e-3 -0.122-0.1-0.309-0.083-0.412 0.044-0.102 0.125-0.082 0.31 0.044 0.412 0.023 0.019 2.42 1.919 4.951 5e-3 0.129-0.097 0.153-0.281 0.056-0.41-0.057-0.076-0.145-0.116-0.233-0.116" fill="#f34940"/></g><g transform="translate(269.92 274.77)"><path d="m0 0c-0.047 0-0.093 0.011-0.138 0.034-0.766 0.405-1.196 0.938-1.276 1.585-0.158 1.278 1.162 2.48 1.219 2.53 0.119 0.108 0.304 0.1 0.412-0.022 0.109-0.12 0.098-0.305-0.022-0.414-0.01-0.01-1.149-1.049-1.027-2.024 0.055-0.444 0.381-0.827 0.97-1.137 0.142-0.075 0.196-0.253 0.121-0.396-0.053-0.099-0.154-0.156-0.259-0.156" fill="#fd695b"/></g><g transform="translate(214 204.23)" fill="#01001f"><path d="m0 0c-3.867-0.031-11.315-2.419-14.706-11.171-3.859-9.957-8.369-42.569-8.559-43.945 0 0 2.679-2.831 9.427-1.151l0.125 0.896c1.37 9.732 5.1 33.583 7.882 40.762 1.792 4.626 5.396 5.053 5.965 5.091h52.14v9.518z" fill="#01001f"/></g><g transform="translate(213.05 203.71)"><path d="m0 0h49.159c0.666 0 1.206 0.54 1.206 1.206s-0.54 1.206-1.206 1.206h-19.033c-0.582 0-1.082 0.416-1.186 0.989l-7.007 38.23c-0.105 0.573-0.604 0.989-1.186 0.989h-46.606c-0.774 0-1.348-0.719-1.176-1.474l9.063-39.853c0.122-0.54 0.597-0.927 1.15-0.939z" fill="#fff"/></g><g transform="translate(274.66 253.04)"><path d="m0 0c-1.336 0-2.438 0.454-3.27 1.351-1.936 2.081-1.69 5.817-1.678 5.975 0.023 0.324 0.326 0.571 0.626 0.542 0.322-0.023 0.566-0.304 0.543-0.626-2e-3 -0.034-0.22-3.391 1.369-5.096 0.611-0.656 1.4-0.974 2.41-0.974 1.057 0 1.871 0.329 2.491 1.008 1.568 1.716 1.287 5.017 1.283 5.05-0.028 0.323 0.208 0.608 0.532 0.637 0.292 0.034 0.606-0.207 0.635-0.53 0.014-0.157 0.327-3.854-1.586-5.947-0.841-0.923-1.97-1.39-3.355-1.39" fill="#a7ceeb"/></g><g transform="translate(262.34 207.04)" fill="#01001f"><path d="m0 0v-2.961h-31.768c-3.867-0.031-11.315-2.419-14.708-11.172-2.903-7.492-6.174-27.723-7.697-37.866l-0.931-5.926s3.531-2.762 9.427-1.02c0.46 2.844 0.941 5.585 1.239 7.669 1.742 11.325 4.598 27.923 6.838 33.705 0.017 0.046 0.036 0.092 0.054 0.137 1.336 3.32 3.507 4.794 9.709 5.066h-0.105 0.105c1.479 0.064 3.175 0.063 5.157 0h43.105s6.866 0.085 6.866 9.033v3.335z" fill="#01001f"/></g><g transform="translate(290 274.53)"><path d="m0 0s1.634-0.103 1.634 2.137c-0.025 0-1.634 0.444-1.634 0.444z" fill="#f39e8c"/></g></g></g></svg>
