<?xml version="1.0" encoding="UTF-8"?>
<!-- Created with Inkscape (http://www.inkscape.org/) -->
<svg width="666.67" height="666.67" version="1.1" viewBox="0 0 666.67 666.67" xml:space="preserve" xmlns="http://www.w3.org/2000/svg" xmlns:cc="http://creativecommons.org/ns#" xmlns:dc="http://purl.org/dc/elements/1.1/" xmlns:rdf="http://www.w3.org/1999/02/22-rdf-syntax-ns#"><metadata><rdf:RDF><cc:Work rdf:about=""><dc:format>image/svg+xml</dc:format><dc:type rdf:resource="http://purl.org/dc/dcmitype/StillImage"/><dc:title/></cc:Work></rdf:RDF></metadata><defs><clipPath id="clipPath22"><path d="m0 0h500v500h-500z"/></clipPath><clipPath id="clipPath38"><path d="m309.67 181.13h43.828v-117.46h-43.828z"/></clipPath><clipPath id="clipPath66"><path d="m185.54 141.98h124.15v-56.806h-124.15z"/></clipPath><clipPath id="clipPath86"><path d="m0 0h500v500h-500z"/></clipPath><clipPath id="clipPath106"><path d="m34.784 550.68h107.83v-89.805h-107.83z"/></clipPath><linearGradient id="linearGradient136" x2="1" gradientTransform="matrix(-4.6796 11.808 11.808 4.6796 213.82 428.95)" gradientUnits="userSpaceOnUse"><stop stop-color="#9b4308" offset="0"/><stop stop-color="#6b2d03" offset="1"/></linearGradient><clipPath id="clipPath146"><path d="m0 0h500v500h-500z"/></clipPath><linearGradient id="linearGradient188" x2="1" gradientTransform="matrix(7.7843 13.492 13.492 -7.7843 323.55 458.76)" gradientUnits="userSpaceOnUse"><stop stop-color="#f2b93b" offset="0"/><stop stop-color="#db881b" offset="1"/></linearGradient><clipPath id="clipPath198"><path d="m0 0h500v500h-500z"/></clipPath><linearGradient id="linearGradient256" x2="1" gradientTransform="matrix(10.469 10.629 10.629 -10.469 300.61 284.06)" gradientUnits="userSpaceOnUse"><stop stop-color="#ffdc83" offset="0"/><stop stop-color="#f79200" offset="1"/></linearGradient><clipPath id="clipPath266"><path d="m0 0h500v500h-500z"/></clipPath><clipPath id="clipPath330"><path d="m299.06 265.65h45.376v-16.937h-45.376z"/></clipPath><linearGradient id="linearGradient376" x2="1" gradientTransform="matrix(-9.8333 7.5 7.5 9.8333 145.32 300.12)" gradientUnits="userSpaceOnUse"><stop stop-color="#f27d27" offset="0"/><stop stop-color="#c6590e" offset="1"/></linearGradient><clipPath id="clipPath386"><path d="m0 0h500v500h-500z"/></clipPath><clipPath id="clipPath454"><path d="m102.18 281.85h44.478v-16.219h-44.478z"/></clipPath></defs><g transform="matrix(1.3333 0 0 -1.3333 0 666.67)"><g clip-path="url(#clipPath22)"><g transform="translate(383.67 64.027)" fill="#4093fe" fill-opacity=".65829"><path d="m0 0c0 8.355-60.591 10.093-135.33 10.093-74.743 0-135.33-1.738-135.33-10.093 0-8.356 60.591-10.36 135.33-10.36 74.742 0 135.33 2.004 135.33 10.36" fill="#4093fe" fill-opacity=".65829"/></g><path d="m353.5 181.13h-207v-117.46h207z" fill="#407bfe"/><path d="m167.31 181.13h-20.811v-117.46h20.811z" fill="#4092fe" fill-opacity=".65829"/><g fill="#0063b4"><g fill="#0063b4"><g clip-path="url(#clipPath38)" fill="#0063b4" opacity=".53999"><path d="m309.67 63.675h43.827v117.46h-43.827z" fill="#0063b4"/></g></g></g><g transform="translate(329.33 199.22)" fill="#4093fe" fill-opacity=".65829"><path d="m0 0h-158.66l-24.172-18.084h207z" fill="#4093fe" fill-opacity=".65829"/></g><g><g transform="translate(294.16 192.79)" fill="#1156f9"><path d="m0 0h-88.328l-6.984-5.225h102.3z" fill="#1156f9"/></g><g transform="translate(205.84 192.79)" fill="#117bf9"><path d="m0 0h88.328l4.603-3.443h4.162l-6.984 5.224h-88.328l-6.984-5.224h0.6z" fill="#117bf9"/></g><path d="m353.5 181.13h-207v-1.522h207z" fill="#407bfe"/><g fill="#0063b4"><g fill="#0063b4"><g clip-path="url(#clipPath66)" fill="#0063b4" opacity=".53999"><path d="m309.69 141.98h-124.15v-56.805h124.15z" fill="#0063b4"/></g></g></g><path d="m314.46 150.57h-128.92v-56.805h128.92z" fill="#fff"/></g></g><text transform="scale(1,-1)" x="195.16464" y="-109.04" fill="#2d2c2a" font-family="'Bebas Neue Bold'" font-size="35.519px" font-weight="bold"><tspan x="195.16464" y="-109.04">VOTO</tspan></text>
<g clip-path="url(#clipPath86)"><g transform="translate(156.24 416.3)"><path d="m0 0 68.309 16.167 23.557-98.485-68.309-16.167z" fill="#fff"/></g><g transform="translate(161.59 502.5)"><path d="m0 0 9.679-7.437-27.189-35.385-9.679 7.437z" fill="#fff"/></g><g transform="translate(164.89 506.84)" fill="#0063b4"><path d="m0 0-94.783 72.829-35.319-45.966 94.782-72.829z" fill="#0063b4"/></g><g fill="#407bfe"><g fill="#407bfe"><g clip-path="url(#clipPath106)" fill="#407bfe" opacity=".53999"><g transform="translate(142.61 477.85)" fill="#407bfe"><path d="m0 0-94.783 72.829-13.043-16.975 94.783-72.829z" fill="#407bfe"/></g></g></g></g><g transform="translate(167.59 490.23)"><path d="m0 0c5.085-3.964 10.092-7.678 14.279-10.724 6.847-4.982 36.63-17.491 41.912-21.55 4.316-3.316 11.607-13.87 15.594-21.305 1.874-3.494 3.103-6.82 3.172-10.784 0.087-4.937 0.754-13.439 0.676-15.941-0.252-8.1-6.955-26.517-6.955-26.517l-11.745 48.98-22.093-5.154s-0.519-2.674 5.481-14.866c6-12.191-2.715-18.199-7.174-16.002-4.459 2.196-11.264 20.539-20.165 29.222-7.721 7.534-17.565 21.941-20.036 25.624-0.393 0.585-0.874 1.102-1.43 1.536l-12.698 9.914z" fill="#9b4308"/></g></g><path d="m202.43 427.23 22.092 5.153s-16.454 6.582-21.933 6.594h-5e-3c-4.37 0-0.154-11.747-0.154-11.747" fill="url(#linearGradient136)"/><g clip-path="url(#clipPath146)"><g transform="translate(206.05 409.08)"><path d="m0 0s3.183-8.621-1.675-10.215c-4.857-1.595-7.687 6.068-7.687 6.068s3.483 4.427 9.362 4.147" fill="#f49656"/></g><g transform="translate(206.05 409.08)"><path d="m0 0s-3.303-2.88-9.362-4.147c0 0 3.483 4.427 9.362 4.147" fill="#ffdfca"/></g><g transform="translate(183.2 422.68)"><path d="m 0,0 -26.958,-6.38 0.212,-0.89 44.276,-19.055 C 13.524,-24.346 7.619,-9.32 0,0" fill="#dbdddd"/></g><g transform="translate(210.48 383.19)"><path d="m0 0-9.354-13.363c-0.208-0.298-0.619-0.37-0.917-0.161l-4.37 3.059c-1.508 1.056-3.588 0.689-4.644-0.82-1.057-1.508-0.69-3.588 0.819-4.644l8.665-6.067c0.942-0.659 2.239-0.43 2.897 0.511l12.366 17.661c1.056 1.509 0.689 3.588-0.82 4.644-1.508 1.055-3.586 0.688-4.642-0.82" fill="#148cdd"/></g><g transform="translate(383.1 457.82)"><path d="m0 0-70.141 2.8-4.279-101.17 70.14-2.799z" fill="#fff"/></g><g transform="translate(357.82 528.21)"><path d="m0 0c-4.232-4.864-8.437-9.467-11.963-13.257-5.767-6.201-32.607-24.177-37.016-29.171-3.601-4.081-8.738-15.835-11.229-23.895-1.171-3.788-1.74-7.288-1.05-11.192 0.86-4.862 1.831-13.336 2.386-15.776 1.798-7.902 11.9-24.697 11.9-24.697l2.158 50.322 22.67-0.831s1.021-2.526-2.536-15.64c-3.556-13.114 6.147-17.343 10.103-14.334 3.957 3.009 7.127 22.315 14.202 32.54 6.138 8.872 13.043 24.896 14.764 28.984 0.273 0.65 0.647 1.249 1.109 1.781l10.567 12.161z" fill="#f2b93b"/></g></g><path d="m333.28 471.21c-5.375-1.06-20.268-10.668-20.268-10.668l22.671-0.832s1.769 11.542-1.996 11.542c-0.129 0-0.265-0.013-0.407-0.042" fill="url(#linearGradient188)"/><g clip-path="url(#clipPath198)"><g transform="translate(335.6 441.2)"><path d="m0 0s-1.476-9.07 3.598-9.707c5.073-0.635 6.383 7.427 6.383 7.427s-4.264 3.679-9.981 2.28" fill="#ffe1a6"/></g><g transform="translate(335.6 441.2)"><path d="m0 0s3.793-2.195 9.981-2.28c0 0-4.264 3.679-9.981 2.28" fill="#fff"/></g><g transform="translate(383.1 457.82)"><path d="m0 0-39.857-28.092c3.562 2.71 6.485 18.586 12.185 29.192z" fill="#dbdddd"/></g><g transform="translate(355.6 409.36)"><path d="m0 0-13.034-9.807c-0.29-0.219-0.703-0.16-0.922 0.131l-3.207 4.262c-1.108 1.472-3.198 1.768-4.67 0.661-1.472-1.108-1.768-3.199-0.66-4.67l6.359-8.454c0.691-0.918 1.994-1.102 2.912-0.412l17.23 12.961c1.471 1.107 1.767 3.198 0.659 4.669-1.106 1.471-3.196 1.766-4.667 0.659" fill="#148cdd"/></g><g transform="translate(300.93 187.56)"><path d="m0 0 46.879 61.308-55.863 42.505-61.51-80.441 30.717-23.372z" fill="#fff"/></g><g transform="translate(257.95 190)"><path d="m0 0 3.204-2.438h39.777l1.864 2.438z" fill="#dbdddd"/></g><g transform="translate(377.92 329.82)"><path d="m0 0-11.864-2.867 10.483-43.376 11.864 2.867z" fill="#fff"/></g><g transform="translate(376.67 335.12)"><path d="m0 0 137.09 33.29 13.618-56.347-137.09-33.289z" fill="#148cdd"/></g><g transform="translate(385.26 299.58)"><path d="m0 0 137.09 33.29 5.029-20.809-137.09-33.289z" fill="#076d9b"/></g><g transform="translate(367.46 321.03)"><path d="m0 0c-6.257-1.559-12.34-2.92-17.403-4.004-8.28-1.773-40.576-1.115-47.052-2.68-5.29-1.278-16.237-7.963-22.899-13.14-3.131-2.432-5.605-4.973-7.278-8.568-2.083-4.476-6.144-11.976-7.089-14.293-3.057-7.505-4.409-27.058-4.409-27.058l30.618 39.994 18.099-13.678s-0.612-2.655-11.045-11.361c-10.432-8.706-4.907-17.734 0.06-17.537 4.966 0.198 18.632 14.199 30.292 18.52 10.115 3.75 24.96 12.921 28.712 15.284 0.597 0.375 1.248 0.652 1.931 0.823l15.63 3.905z" fill="#ffdc83"/></g></g><path d="m310.04 277.61s8.629 9.032 4.623 10.801c-5.012 2.212-22.721 2.877-22.721 2.877z" fill="url(#linearGradient256)"/><g clip-path="url(#clipPath266)"><g transform="translate(299.37 262.49)"><path d="m0 0s-6.408-6.586-2.617-10.016c3.792-3.429 9.488 2.425 9.488 2.425s-1.385 5.46-6.871 7.591" fill="#fff1d2"/></g><g transform="translate(299.37 262.49)"><path d="m0 0s1.849-3.973 6.871-7.591c0 0-1.385 5.46-6.871 7.591" fill="#fff"/></g><g transform="translate(402.21 328.39)"><path d="m0 0c-0.674 2.788-3.479 4.501-6.268 3.828-2.787-0.674-4.501-3.48-3.827-6.267 0.674-2.788 3.48-4.502 6.268-3.828 2.787 0.674 4.501 3.479 3.827 6.267" fill="#076d9b"/></g><g transform="translate(400.21 329.55)"><path d="m0 0c-0.674 2.788-3.48 4.501-6.268 3.828-2.788-0.674-4.502-3.48-3.828-6.268s3.481-4.501 6.268-3.828c2.788 0.674 4.501 3.48 3.828 6.268" fill="#fff"/></g><g transform="translate(393.08 328.41)"><path d="m0 0c0.414-0.253 0.545-0.794 0.292-1.209-0.254-0.415-0.795-0.545-1.209-0.292-0.415 0.253-0.546 0.794-0.292 1.209 0.253 0.414 0.794 0.545 1.209 0.292" fill="#2d2c2a"/></g><g transform="translate(395.06 331.66)"><path d="m0 0c0.415-0.253 0.546-0.794 0.292-1.209-0.253-0.415-0.794-0.545-1.208-0.292-0.415 0.253-0.546 0.794-0.293 1.209 0.254 0.414 0.795 0.545 1.209 0.292" fill="#2d2c2a"/></g><g transform="translate(396.18 326.51)"><path d="m0 0c0.415-0.253 0.546-0.794 0.292-1.209-0.253-0.415-0.794-0.545-1.208-0.292-0.415 0.253-0.546 0.794-0.293 1.209 0.254 0.414 0.795 0.545 1.209 0.292" fill="#2d2c2a"/></g><g transform="translate(398.17 329.76)"><path d="m0 0c0.414-0.253 0.545-0.794 0.292-1.209-0.253-0.414-0.794-0.545-1.209-0.292-0.414 0.253-0.545 0.794-0.292 1.209s0.795 0.545 1.209 0.292" fill="#2d2c2a"/></g><g transform="translate(419.83 332.65)"><path d="m0 0c-0.674 2.788-3.479 4.501-6.267 3.828-2.788-0.674-4.502-3.48-3.828-6.268s3.48-4.501 6.268-3.828c2.787 0.674 4.501 3.48 3.827 6.268" fill="#076d9b"/></g><g transform="translate(417.84 333.81)"><path d="m0 0c-0.674 2.788-3.479 4.501-6.268 3.828-2.787-0.674-4.501-3.48-3.827-6.268s3.48-4.501 6.267-3.828c2.788 0.674 4.502 3.48 3.828 6.268" fill="#fff"/></g><g transform="translate(410.7 332.67)"><path d="m0 0c0.414-0.253 0.545-0.794 0.292-1.209s-0.794-0.545-1.209-0.292c-0.414 0.253-0.545 0.794-0.292 1.209 0.253 0.414 0.794 0.545 1.209 0.292" fill="#2d2c2a"/></g><g transform="translate(412.69 335.92)"><path d="m0 0c0.414-0.253 0.545-0.794 0.292-1.209-0.253-0.414-0.795-0.545-1.209-0.292-0.415 0.253-0.545 0.794-0.292 1.209s0.794 0.545 1.209 0.292" fill="#2d2c2a"/></g><g transform="translate(413.81 330.77)"><path d="m0 0c0.414-0.253 0.545-0.794 0.292-1.209-0.254-0.414-0.795-0.545-1.209-0.292-0.415 0.253-0.545 0.794-0.292 1.209s0.794 0.545 1.209 0.292" fill="#2d2c2a"/></g><g transform="translate(415.79 334.02)"><path d="m0 0c0.415-0.253 0.546-0.794 0.292-1.208-0.253-0.415-0.794-0.546-1.208-0.293-0.415 0.253-0.546 0.794-0.292 1.209 0.253 0.415 0.794 0.545 1.208 0.292" fill="#2d2c2a"/></g><g clip-path="url(#clipPath330)" opacity=".5"><g transform="translate(325.76 265.65)"><path d="m0 0c-10.749-5.426-22.241-16.757-26.71-16.937l45.377 2.733z" fill="#dbdddd"/></g></g><g transform="translate(299.14 231.94)"><path d="m0 0-14.749-6.965c-0.329-0.155-0.722-0.014-0.877 0.315l-2.277 4.823c-0.786 1.666-2.774 2.379-4.44 1.592-1.665-0.786-2.378-2.774-1.592-4.44l4.516-9.565c0.49-1.039 1.731-1.484 2.769-0.993l19.497 9.205c1.666 0.786 2.378 2.773 1.591 4.438-0.787 1.664-2.773 2.376-4.438 1.59" fill="#148cdd"/></g><g transform="translate(97.916 264.5)"><path d="m0 0 54.713 43.977 63.628-78.778-54.713-43.976z" fill="#fff"/></g><g transform="translate(66.775 349.95)" fill="#0063b4"><path d="m0 0-116.89 24.979-12.114-56.688 116.89-24.979z" fill="#0063b4"/></g><g transform="translate(59.134 314.19)" fill="#407bfe"><path d="m0 0-116.89 24.979-4.474-20.934 116.89-24.98z" fill="#407bfe"/></g><g transform="translate(76.361 336.11)"><path d="m0 0c6.296-1.392 12.413-2.59 17.503-3.54 8.324-1.552 40.592-0.035 47.106-1.427 5.323-1.137 16.444-7.529 23.242-12.526 3.194-2.348 5.734-4.823 7.502-8.371 2.202-4.42 6.461-11.809 7.467-14.1 3.256-7.422 5.127-26.931 5.127-26.931l-31.671 39.166-17.728-14.155s0.682-2.638 11.342-11.064c10.661-8.425 5.378-17.597 0.407-17.531-4.97 0.065-19.004 13.697-30.773 17.707-10.212 3.48-25.295 12.252-29.11 14.514-0.606 0.36-1.264 0.619-1.952 0.772l-15.727 3.488z" fill="#f27d27"/></g></g><path d="m130 304.9c-3.957-1.875 4.909-10.674 4.909-10.674l17.728 14.154s-17.686-1.135-22.637-3.48" fill="url(#linearGradient376)"/><g clip-path="url(#clipPath386)"><g transform="translate(145.98 279.4)"><path d="m0 0s6.582-6.413 2.882-9.942c-3.699-3.529-9.549 2.171-9.549 2.171s1.239 5.495 6.667 7.771" fill="#ffd0b0"/></g><g transform="translate(145.98 279.4)"><path d="m0 0s-1.743-4.021-6.667-7.771c0 0 1.239 5.495 6.667 7.771" fill="#fff"/></g><g transform="translate(41.426 342.54)"><path d="m0 0c0.599 2.805 3.359 4.592 6.163 3.993 2.805-0.599 4.592-3.359 3.993-6.163-0.599-2.805-3.359-4.593-6.163-3.993-2.805 0.599-4.593 3.358-3.993 6.163" fill="#161513"/></g><g transform="translate(43.389 343.76)"><path d="m0 0c0.599 2.805 3.358 4.592 6.163 3.993s4.592-3.359 3.993-6.163c-0.599-2.805-3.359-4.593-6.163-3.993-2.805 0.599-4.593 3.358-3.993 6.163" fill="#fff"/></g><g transform="translate(50.553 342.8)"><path d="m0 0c-0.408-0.264-0.524-0.809-0.26-1.216 0.264-0.408 0.809-0.524 1.217-0.26 0.407 0.264 0.523 0.809 0.259 1.216s-0.808 0.524-1.216 0.26" fill="#2d2c2a"/></g><g transform="translate(48.481 346)"><path d="m0 0c-0.408-0.264-0.524-0.808-0.26-1.216s0.809-0.524 1.216-0.26c0.408 0.264 0.524 0.809 0.26 1.216-0.264 0.408-0.808 0.524-1.216 0.26" fill="#2d2c2a"/></g><g transform="translate(47.496 340.82)"><path d="m0 0c-0.407-0.264-0.524-0.809-0.26-1.216 0.264-0.408 0.809-0.524 1.217-0.26 0.407 0.264 0.523 0.809 0.259 1.216-0.264 0.408-0.808 0.524-1.216 0.26" fill="#2d2c2a"/></g><g transform="translate(45.424 344.02)"><path d="m0 0c-0.408-0.264-0.524-0.809-0.26-1.216 0.264-0.408 0.809-0.524 1.216-0.26 0.408 0.264 0.524 0.809 0.26 1.216s-0.808 0.524-1.216 0.26" fill="#2d2c2a"/></g><g transform="translate(23.694 346.32)"><path d="m0 0c0.599 2.805 3.359 4.592 6.163 3.993 2.805-0.599 4.592-3.359 3.993-6.163-0.599-2.805-3.359-4.593-6.163-3.993-2.805 0.599-4.592 3.359-3.993 6.163" fill="#161513"/></g><g transform="translate(25.657 347.54)"><path d="m0 0c0.599 2.805 3.359 4.592 6.163 3.993 2.805-0.599 4.592-3.359 3.993-6.163-0.599-2.805-3.359-4.592-6.163-3.993-2.805 0.599-4.593 3.359-3.993 6.163" fill="#fff"/></g><g transform="translate(32.822 346.59)"><path d="m0 0c-0.408-0.264-0.524-0.809-0.26-1.216 0.264-0.408 0.809-0.524 1.217-0.26 0.407 0.264 0.523 0.809 0.259 1.216s-0.808 0.524-1.216 0.26" fill="#2d2c2a"/></g><g transform="translate(30.75 349.79)"><path d="m0 0c-0.408-0.264-0.524-0.809-0.26-1.216 0.264-0.408 0.809-0.524 1.216-0.26 0.408 0.264 0.524 0.809 0.26 1.216s-0.808 0.524-1.216 0.26" fill="#2d2c2a"/></g><g transform="translate(29.764 344.61)"><path d="m0 0c-0.407-0.264-0.524-0.809-0.26-1.216 0.264-0.408 0.809-0.524 1.217-0.26 0.407 0.264 0.523 0.809 0.259 1.216-0.264 0.408-0.808 0.524-1.216 0.26" fill="#2d2c2a"/></g><g transform="translate(27.692 347.81)"><path d="m0 0c-0.408-0.264-0.524-0.809-0.26-1.216 0.264-0.408 0.809-0.524 1.217-0.26 0.407 0.264 0.523 0.809 0.259 1.216s-0.808 0.524-1.216 0.26" fill="#2d2c2a"/></g><g transform="translate(78.283 343.98)"><path d="m0 0-10.59-47.23-11.87 2.19-0.02 0.08 10.03 46.92 0.2 0.48z" fill="#fff"/></g><g clip-path="url(#clipPath454)" opacity=".5"><g transform="translate(146.66 265.63)"><path d="m0 0c-4.468 0.054-16.257 11.079-27.145 16.22l-17.333-13.932z" fill="#dbdddd"/></g></g><g transform="translate(176.89 241.97)"><path d="m0 0-6.828 0.406 0.407 6.828c0.115 1.839-1.288 3.423-3.133 3.525-0.562 0.033-1.095-0.075-1.569-0.289-1.085-0.488-1.877-1.557-1.951-2.829l-0.408-6.839-6.828 0.406c-1.839 0.116-3.422-1.287-3.525-3.132-0.032-0.562 0.076-1.095 0.289-1.569 0.488-1.085 1.557-1.877 2.83-1.951l6.836-0.409-0.408-6.826c-0.109-1.822 1.267-3.393 3.087-3.525 1.854-0.135 3.46 1.272 3.571 3.128l0.406 6.825 6.827-0.407c1.822-0.11 3.393 1.266 3.525 3.087 0.135 1.854-1.273 3.461-3.128 3.571" fill="#fb6200"/></g></g></g></svg>
