<?xml version="1.0" encoding="UTF-8"?>
<!-- Created with Inkscape (http://www.inkscape.org/) -->
<svg width="666.67" height="500.67" version="1.1" viewBox="0 0 666.67 500.67" xml:space="preserve" xmlns="http://www.w3.org/2000/svg" xmlns:cc="http://creativecommons.org/ns#" xmlns:dc="http://purl.org/dc/elements/1.1/" xmlns:rdf="http://www.w3.org/1999/02/22-rdf-syntax-ns#"><metadata><rdf:RDF><cc:Work rdf:about=""><dc:format>image/svg+xml</dc:format><dc:type rdf:resource="http://purl.org/dc/dcmitype/StillImage"/><dc:title/></cc:Work></rdf:RDF></metadata><defs><clipPath id="clipPath100"><path d="m0 500h500v-500h-500z"/></clipPath><filter id="filter870" x="-.16774" y="-.34643" width="1.3355" height="1.6929" color-interpolation-filters="sRGB"><feGaussianBlur stdDeviation="4.6049368"/></filter></defs><g transform="matrix(1.3333 0 0 -1.3333 0 500.67)"><g transform="matrix(.26637 0 0 .48488 420.62 158.58)"><path d="m0 0h-260.29l51.586 51.587h157.11z" fill="#fff9d9"/></g><g transform="matrix(.25146 0 0 .48488 352.83 158.57)"><path d="m0 0-0.82-9.26-1.82-20.58-7.363-83.551h280.29l-9.184 104.13-0.82 9.26z" fill="#72c9ff"/></g><g transform="matrix(.26637 0 0 .48488 352.83 158.57)"><path d="m0 0-0.821-9.259-1.816-20.582 83.554-83.554h177.1l-113.4 113.4z" fill="#65b6f5"/></g><g transform="matrix(.26637 0 0 .48488 420.84 154.09)"><path d="m0 0h-261.93l0.821 9.259h260.29z" fill="#478dd2"/></g><g transform="matrix(.26637 0 0 .48488 403.19 158.58)"><path d="m0 0h-135.76l-29.54 29.541 22.045 22.046h91.674z" fill="#fce5b9"/></g><g transform="matrix(.26716 0 0 .32679 402.01 167.62)"><path d="m0 0h-119.76l7.61 5.73h104.53z" fill="#7f383e"/></g><g transform="matrix(.26637 0 0 .48488 365.74 133)"><path d="m0 0-2.849-36.821-1.845-23.821h161.22l-4.701 60.642z" fill="#fff0c7"/></g><g transform="matrix(.26637 0 0 .48488 365.74 133)"><path d="m0 0-2.849-36.823 23.82-23.819h128.54l-60.642 60.642z" fill="#fff9d9"/></g><g transform="matrix(1 0 0 .75445 -1.8657 105.41)"><g clip-path="url(#clipPath100)"><g transform="matrix(.58063 0 0 .50952 447.72 106.42)" fill="#f2f2f2"><path d="m0 0-56.56-40.05-8.1-5.73h-39.56l-4.06 5.73-23.81 33.64 91.01 64.431 10.96-15.481 1.89-2.67 15.99-22.58 6.24-8.82z" fill="#f2f2f2"/></g><g transform="matrix(.64633 0 0 .47498 505.79 175.97)" fill-opacity="0" filter="url(#filter870)"><path d="m0 0c-0.704-1.096-0.937-2.069-0.059-2.521 0.598-0.306 1.323-0.171 1.983-0.028 18.555 4.014 36.237 10.218 52.538 19.843 3.047 1.795 8.248 4.438 9.99 7.593 4.975 9.011-14.598 1.248-16.872 0.277-14.311-6.115-30.851-10.555-43.034-20.428-0.675-0.547-3.322-2.828-4.546-4.736" fill-opacity="0"/></g><g transform="matrix(.59977 0 0 .68316 256.34 144.77)" fill="#f2f2f2"><path d="m0 0 74.171-35.419 22.572 47.276-74.159 35.421-6.025-12.614-1.039-2.176-8.791-18.399-3.43-7.187z" fill="#f2f2f2"/></g></g></g></g></svg>
