<?xml version="1.0" encoding="UTF-8" standalone="no"?>
<svg
   xmlns:dc="http://purl.org/dc/elements/1.1/"
   xmlns:cc="http://creativecommons.org/ns#"
   xmlns:rdf="http://www.w3.org/1999/02/22-rdf-syntax-ns#"
   xmlns:svg="http://www.w3.org/2000/svg"
   xmlns="http://www.w3.org/2000/svg"
   xmlns:sodipodi="http://sodipodi.sourceforge.net/DTD/sodipodi-0.dtd"
   xmlns:inkscape="http://www.inkscape.org/namespaces/inkscape"
   width="666.67"
   height="666.67"
   version="1.1"
   viewBox="0 0 666.67 666.67"
   xml:space="preserve"
   id="svg184"
   sodipodi:docname="voto.svg"
   inkscape:version="0.92.5 (2060ec1f9f, 2020-04-08)"><sodipodi:namedview
     pagecolor="#ffffff"
     bordercolor="#666666"
     borderopacity="1"
     objecttolerance="10"
     gridtolerance="10"
     guidetolerance="10"
     inkscape:pageopacity="0"
     inkscape:pageshadow="2"
     inkscape:window-width="1366"
     inkscape:window-height="705"
     id="namedview186"
     showgrid="false"
     inkscape:zoom="0.80200068"
     inkscape:cx="334.34672"
     inkscape:cy="332.35735"
     inkscape:window-x="-8"
     inkscape:window-y="-8"
     inkscape:window-maximized="1"
     inkscape:current-layer="g182" /><metadata
     id="metadata2"><rdf:RDF><cc:Work
         rdf:about=""><dc:format>image/svg+xml</dc:format><dc:type
           rdf:resource="http://purl.org/dc/dcmitype/StillImage" /><dc:title></dc:title></cc:Work></rdf:RDF></metadata><defs
     id="defs10"><clipPath
       id="clipPath146"><path
         d="m0 500h500v-500h-500z"
         id="path4" /></clipPath><clipPath
       id="clipPath442-9"><path
         d="m0 500h500v-500h-500z"
         id="path7" /></clipPath></defs><g
     transform="matrix(1.3333 0 0 -1.3333 0 666.67)"
     id="g182"><g
       transform="matrix(0.59125056,0,0,0.7778577,134.87107,178.62009)"
       id="g14"
       style="fill:#ffffff;stroke:#ffffff"><path
         d="M 0,0 H 374.9"
         stroke-miterlimit="10"
         id="path12"
         inkscape:connector-curvature="0"
         style="fill:#ffffff;stroke:#ffffff;stroke-width:3;stroke-linecap:round;stroke-linejoin:round;stroke-miterlimit:10" /></g><g
       id="g24"
       transform="matrix(0.79142035,0,0,0.7778577,47.917667,59.382281)"><path
   d="M 355.98,120.8 H 144.02 v 157.19 h 211.96 z"
   stroke-miterlimit="10"
   id="path16"
   inkscape:connector-curvature="0"
   style="fill:#e8b535;stroke:#ffffff;stroke-width:3;stroke-linecap:round;stroke-linejoin:round;stroke-miterlimit:10" /><text
   transform="scale(1,-1)"
   x="200.85347"
   y="-191.9023"
   font-size="36.182px"
   id="text20"
   style="font-size:36.18199921px;font-family:'Intro Head R Base';fill:#ffffff"><tspan
     id="tspan18"
     style="fill:#ffffff">VOTO</tspan></text>


<path
   d="M 362.53,295.69 H 137.47 v -17.693 h 225.06 z"
   stroke-miterlimit="10"
   id="path22"
   inkscape:connector-curvature="0"
   style="fill:#e8b535;stroke:#ffffff;stroke-width:3;stroke-linecap:round;stroke-linejoin:round;stroke-miterlimit:10" /></g><g
       transform="matrix(0.79142035,0,0,0.7778577,174.12548,335.92625)"
       id="g28"><path
         d="m 0,0 h 181.06 l 22.002,-59.829 h -225.06 z"
         id="path26"
         inkscape:connector-curvature="0"
         style="fill:#f6d993" /></g><g
       transform="matrix(0.79142035,0,0,0.7778577,174.12548,335.92625)"
       id="g32"
       style="stroke:#ffffff"><path
         d="m 0,0 h 181.06 l 22.002,-59.829 h -225.06 z"
         stroke-miterlimit="10"
         id="path30"
         inkscape:connector-curvature="0"
         style="fill:none;stroke:#ffffff;stroke-width:3;stroke-linecap:round;stroke-linejoin:round;stroke-miterlimit:10" /></g><g
       transform="matrix(0.79142035,0,0,0.7778577,258.29303,300.73596)"
       id="g36"><path
         d="m 0,0 -57.875,36.643 47.251,74.628 57.875,-36.643 z"
         id="path34"
         inkscape:connector-curvature="0"
         style="fill:#f6f6f6" /></g><g
       transform="matrix(0.79142035,0,0,0.7778577,258.29303,300.73596)"
       id="g40"><path
         d="m 0,0 -57.875,36.643 47.251,74.628 57.875,-36.643 z"
         stroke-miterlimit="10"
         id="path38"
         inkscape:connector-curvature="0"
         style="fill:none;stroke:#50251f;stroke-width:3.16400003;stroke-linecap:round;stroke-linejoin:round;stroke-miterlimit:10" /></g><g
       transform="matrix(0.79142035,0,0,0.7778577,255.28563,359.1064)"
       id="g44"><path
         d="M 0,0 -13.142,8.321 -4.821,21.462 8.32,13.142 Z"
         id="path42"
         inkscape:connector-curvature="0"
         style="fill:#f6f6f6" /></g><g
       transform="matrix(0.79142035,0,0,0.7778577,255.28563,359.1064)"
       id="g48"><path
         d="M 0,0 -13.142,8.321 -4.821,21.462 8.32,13.142 Z"
         stroke-miterlimit="10"
         id="path46"
         inkscape:connector-curvature="0"
         style="fill:none;stroke:#50251f;stroke-width:2.82800007;stroke-linecap:round;stroke-linejoin:round;stroke-miterlimit:10" /></g><g
       transform="matrix(0.79142035,0,0,0.7778577,265.36042,362.91013)"
       id="g52"><path
         d="M 0,0 11.582,-7.333"
         stroke-miterlimit="10"
         id="path50"
         inkscape:connector-curvature="0"
         style="fill:none;stroke:#50251f;stroke-width:2.82800007;stroke-linecap:round;stroke-linejoin:round;stroke-miterlimit:10" /></g><g
       transform="matrix(0.79142035,0,0,0.7778577,262.68542,358.74859)"
       id="g56"><path
         d="M 0,0 20.492,-12.975"
         stroke-miterlimit="10"
         id="path54"
         inkscape:connector-curvature="0"
         style="fill:none;stroke:#50251f;stroke-width:2.82800007;stroke-linecap:round;stroke-linejoin:round;stroke-miterlimit:10" /></g><g
       transform="matrix(0.79142035,0,0,0.7778577,244.71225,342.68583)"
       id="g60"><path
         d="M 0,0 -13.142,8.321 -4.821,21.462 8.32,13.142 Z"
         id="path58"
         inkscape:connector-curvature="0"
         style="fill:#f6f6f6" /></g><g
       transform="matrix(0.79142035,0,0,0.7778577,244.71225,342.68583)"
       id="g64"><path
         d="M 0,0 -13.142,8.321 -4.821,21.462 8.32,13.142 Z"
         stroke-miterlimit="10"
         id="path62"
         inkscape:connector-curvature="0"
         style="fill:none;stroke:#50251f;stroke-width:2.82800007;stroke-linecap:round;stroke-linejoin:round;stroke-miterlimit:10" /></g><g
       transform="matrix(0.79142035,0,0,0.7778577,254.78703,346.48955)"
       id="g68"><path
         d="M 0,0 20.493,-12.975"
         stroke-miterlimit="10"
         id="path66"
         inkscape:connector-curvature="0"
         style="fill:none;stroke:#50251f;stroke-width:2.82800007;stroke-linecap:round;stroke-linejoin:round;stroke-miterlimit:10" /></g><g
       transform="matrix(0.79142035,0,0,0.7778577,252.10411,342.32802)"
       id="g72"><path
         d="M 0,0 20.492,-12.975"
         stroke-miterlimit="10"
         id="path70"
         inkscape:connector-curvature="0"
         style="fill:none;stroke:#50251f;stroke-width:2.82800007;stroke-linecap:round;stroke-linejoin:round;stroke-miterlimit:10" /></g><g
       transform="matrix(0.79142035,0,0,0.7778577,234.13887,326.26526)"
       id="g76"><path
         d="m 0,0 -13.142,8.321 8.321,13.141 13.142,-8.32 z"
         id="path74"
         inkscape:connector-curvature="0"
         style="fill:#f6f6f6" /></g><g
       transform="matrix(0.79142035,0,0,0.7778577,234.13887,326.26526)"
       id="g80"><path
         d="m 0,0 -13.142,8.321 8.321,13.141 13.142,-8.32 z"
         stroke-miterlimit="10"
         id="path78"
         inkscape:connector-curvature="0"
         style="fill:none;stroke:#50251f;stroke-width:2.82800007;stroke-linecap:round;stroke-linejoin:round;stroke-miterlimit:10" /></g><g
       transform="matrix(0.79142035,0,0,0.7778577,244.21366,330.06898)"
       id="g84"><path
         d="M 0,0 20.493,-12.975"
         stroke-miterlimit="10"
         id="path82"
         inkscape:connector-curvature="0"
         style="fill:none;stroke:#50251f;stroke-width:2.82800007;stroke-linecap:round;stroke-linejoin:round;stroke-miterlimit:10" /></g><g
       transform="matrix(0.79142035,0,0,0.7778577,241.53075,325.91522)"
       id="g88"><path
         d="M 0,0 16.483,-10.436"
         stroke-miterlimit="10"
         id="path86"
         inkscape:connector-curvature="0"
         style="fill:none;stroke:#50251f;stroke-width:2.82800007;stroke-linecap:round;stroke-linejoin:round;stroke-miterlimit:10" /></g><g
       transform="matrix(0.79142035,0,0,0.7778577,240.45441,361.3233)"
       id="g92"><path
         d="M 0,0 5.944,-26.464"
         stroke-miterlimit="10"
         id="path90"
         inkscape:connector-curvature="0"
         style="fill:none;stroke:#a0c373;stroke-width:3.48699999;stroke-linecap:round;stroke-linejoin:round;stroke-miterlimit:10" /></g><g
       transform="matrix(0.79142035,0,0,0.7778577,232.33444,348.722)"
       id="g96"><path
         d="M 0,0 26.464,5.945"
         stroke-miterlimit="10"
         id="path94"
         inkscape:connector-curvature="0"
         style="fill:none;stroke:#a0c373;stroke-width:3.48699999;stroke-linecap:round;stroke-linejoin:round;stroke-miterlimit:10" /></g><path
       d="m 282.92202,295.26762 h -70.58518 v 17.39057 h 70.58518 z"
       id="path98"
       inkscape:connector-curvature="0"
       style="fill:#f6d993;stroke-width:0.78460974" /><g
       transform="matrix(0.79142035,0,0,0.7778577,208.62349,312.65275)"
       id="g102"
       style="fill:#ffffff;stroke:#ffffff"><path
         d="M 0,0 H 93.875"
         stroke-miterlimit="10"
         id="path100"
         inkscape:connector-curvature="0"
         style="fill:#ffffff;stroke:#ffffff;stroke-width:5;stroke-linecap:round;stroke-linejoin:round;stroke-miterlimit:10" /></g><g
       transform="matrix(0.79142035,0,0,0.7778577,169.00499,234.91365)"
       id="g106"><path
         d="M 0,0 V -94.666 H 29.333"
         stroke-miterlimit="10"
         id="path104"
         inkscape:connector-curvature="0"
         style="fill:none;stroke:#f6d993;stroke-width:4;stroke-linecap:round;stroke-linejoin:round;stroke-miterlimit:10" /></g><g
       transform="matrix(0.79142035,0,0,0.7778577,169.00499,243.15116)"
       id="g110"><path
         d="M 0,0 V 12"
         stroke-miterlimit="10"
         id="path108"
         inkscape:connector-curvature="0"
         style="fill:none;stroke:#f6d993;stroke-width:4;stroke-linecap:round;stroke-linejoin:round;stroke-miterlimit:10" /></g><g
       transform="matrix(0.79142035,0,0,0.7778577,277.69074,268.10485)"
       id="g114"><path
         d="M 0,0 H 53.334"
         stroke-miterlimit="10"
         id="path112"
         inkscape:connector-curvature="0"
         style="fill:none;stroke:#f6d993;stroke-width:4;stroke-linecap:round;stroke-linejoin:round;stroke-miterlimit:10" /></g><g
       transform="matrix(0.79142035,0,0,0.7778577,260.96012,268.10485)"
       id="g118"><path
         d="M 0,0 H 9.732"
         stroke-miterlimit="10"
         id="path116"
         inkscape:connector-curvature="0"
         style="fill:none;stroke:#f6d993;stroke-width:4;stroke-linecap:round;stroke-linejoin:round;stroke-miterlimit:10" /></g><g
       id="g144"
       transform="matrix(0.79142035,0,0,0.7778577,47.917667,59.382281)"
       style="stroke:#ffffff"><g
         transform="translate(143.47,335.52)"
         id="g122"><path
           d="M 0,0 -8.687,-23.622"
           stroke-miterlimit="10"
           id="path120"
           inkscape:connector-curvature="0"
           style="fill:none;stroke:#ffffff;stroke-width:3;stroke-linecap:round;stroke-linejoin:round;stroke-miterlimit:10" /></g><g
         transform="translate(148.55,349.32)"
         id="g126"><path
           d="M 0,0 -2.063,-5.608"
           stroke-miterlimit="10"
           id="path124"
           inkscape:connector-curvature="0"
           style="fill:none;stroke:#ffffff;stroke-width:3;stroke-linecap:round;stroke-linejoin:round;stroke-miterlimit:10" /></g><g
         transform="translate(364.53,228.42)"
         id="g130"><path
           d="M 0,0 V -26.336"
           stroke-miterlimit="10"
           id="path128"
           inkscape:connector-curvature="0"
           style="fill:none;stroke:#ffffff;stroke-width:3;stroke-linecap:round;stroke-linejoin:round;stroke-miterlimit:10" /></g><g
         transform="translate(300.42,113)"
         id="g134"><path
           d="M 0,0 H -58.819"
           stroke-miterlimit="10"
           id="path132"
           inkscape:connector-curvature="0"
           style="fill:none;stroke:#ffffff;stroke-width:3;stroke-linecap:round;stroke-linejoin:round;stroke-miterlimit:10" /></g><g
         transform="translate(315.5,113)"
         id="g138"><path
           d="M 0,0 H -6.652"
           stroke-miterlimit="10"
           id="path136"
           inkscape:connector-curvature="0"
           style="fill:none;stroke:#ffffff;stroke-width:3;stroke-linecap:round;stroke-linejoin:round;stroke-miterlimit:10" /></g><g
         clip-path="url(#clipPath146)"
         id="g142"
         style="stroke:#ffffff"><g
           transform="translate(7.9466,-10.593)"
           id="g140"
           style="stroke:#ffffff" /></g></g><g
       transform="matrix(4.2754553,0,0,4.154041,-362.40081,-840.60195)"
       id="g180"
       style="fill:#ffffff"><g
         clip-path="url(#clipPath442-9)"
         id="g178"
         style="fill:#ffffff"><g
           transform="translate(143.53,306.36)"
           id="g148"
           style="fill:#ffffff"><path
             d="m 0,0 c -23.078,0 -41.854,-18.775 -41.854,-41.854 0,-23.078 18.776,-41.853 41.854,-41.853 23.078,0 41.854,18.775 41.854,41.853 C 41.854,-18.775 23.078,0 0,0 m 0,-84.505 c -23.518,0 -42.651,19.134 -42.651,42.651 0,23.518 19.133,42.651 42.651,42.651 23.518,0 42.651,-19.133 42.651,-42.651 0,-23.517 -19.133,-42.651 -42.651,-42.651"
             id="path146"
             style="fill:#ffffff"
             inkscape:connector-curvature="0" /></g><g
           transform="translate(120.59,299.05)"
           id="g152"
           style="fill:#ffffff"><path
             d="m 0,0 c 0,-0.771 -0.625,-1.395 -1.395,-1.395 -0.771,0 -1.395,0.624 -1.395,1.395 0,0.771 0.624,1.395 1.395,1.395 C -0.625,1.395 0,0.771 0,0"
             id="path150"
             style="fill:#ffffff"
             inkscape:connector-curvature="0" /></g><g
           transform="translate(181.91,235.27)"
           id="g156"
           style="fill:#ffffff"><path
             d="m 0,0 c 0,-0.771 -0.625,-1.396 -1.396,-1.396 -0.77,0 -1.395,0.625 -1.395,1.396 0,0.771 0.625,1.396 1.395,1.396 C -0.625,1.396 0,0.771 0,0"
             id="path154"
             style="fill:#ffffff"
             inkscape:connector-curvature="0" /></g><g
           transform="translate(175.73,300.44)"
           id="g160"
           style="fill:#ffffff"><path
             d="m 0,0 c 0,-0.347 -0.282,-0.629 -0.629,-0.629 -0.348,0 -0.629,0.282 -0.629,0.629 0,0.348 0.281,0.629 0.629,0.629 C -0.282,0.629 0,0.348 0,0"
             id="path158"
             style="fill:#ffffff"
             inkscape:connector-curvature="0" /></g><g
           transform="translate(101.9,242.88)"
           id="g164"
           style="fill:#ffffff"><path
             d="m 0,0 c 0,-0.347 -0.282,-0.629 -0.629,-0.629 -0.348,0 -0.629,0.282 -0.629,0.629 0,0.348 0.281,0.63 0.629,0.63 C -0.282,0.63 0,0.348 0,0"
             id="path162"
             style="fill:#ffffff"
             inkscape:connector-curvature="0" /></g><g
           transform="translate(143.53,217.34)"
           id="g168"
           style="fill:#ffffff"><path
             d="m 0,0 c -2.833,0 -5.669,0.252 -8.431,0.751 -5.171,0.933 -10.116,2.716 -14.699,5.3 -3.799,2.14 -7.286,4.802 -10.366,7.907 l 0.566,0.562 c 3.028,-3.054 6.457,-5.669 10.191,-7.775 4.505,-2.54 9.367,-4.293 14.45,-5.21 6.519,-1.178 13.394,-0.936 19.81,0.704 4.157,1.063 8.148,2.703 11.862,4.876 L 23.785,6.427 C 20.007,4.217 15.947,2.548 11.719,1.467 7.911,0.493 3.968,0 0,0"
             id="path166"
             style="fill:#ffffff"
             inkscape:connector-curvature="0" /></g><g
           transform="translate(188.57,250.48)"
           id="g172"
           style="fill:#ffffff"><path
             d="m 0,0 -0.761,0.237 c 1.383,4.448 2.084,9.087 2.084,13.789 0,8.438 -2.288,16.699 -6.617,23.889 l 0.682,0.411 C -0.208,31.012 2.121,22.609 2.121,14.026 2.121,9.244 1.407,4.525 0,0"
             id="path170"
             style="fill:#ffffff"
             inkscape:connector-curvature="0" /></g><g
           transform="translate(97.156,264.5)"
           id="g176"
           style="fill:#ffffff"><path
             d="m 0,0 h -0.797 c 0,2.809 0.249,5.623 0.739,8.363 1.118,6.247 3.452,12.115 6.936,17.438 3.025,4.62 6.8,8.644 11.222,11.959 4.103,3.078 8.644,5.449 13.495,7.048 4.753,1.567 9.724,2.36 14.776,2.36 5.576,0 11.034,-0.963 16.222,-2.863 l -0.274,-0.749 c -5.1,1.868 -10.465,2.815 -15.948,2.815 -4.967,0 -9.854,-0.781 -14.526,-2.321 C 27.076,42.479 22.612,40.148 18.578,37.123 14.231,33.863 10.519,29.907 7.546,25.365 4.12,20.131 1.825,14.364 0.727,8.223 0.245,5.528 0,2.762 0,0"
             id="path174"
             style="fill:#ffffff"
             inkscape:connector-curvature="0" /></g></g></g></g></svg>